<svg xmlns="http://www.w3.org/2000/svg" width="425.2" height="425.2" viewBox="0 0 425.197 425.197" enable-background="new 0 0 425.197 425.197" xmlns:xlink="http://www.w3.org/1999/xlink"><defs><linearGradient id="2e" gradientUnits="userSpaceOnUse" x1="319.06" y1="224.74" x2="307.07" y2="212.75" xlink:href="#2d"/><linearGradient id="1l" gradientUnits="userSpaceOnUse" x1="292.39" y1="92.68" x2="300.13" y2="100.42" xlink:href="#2"/><linearGradient id="1n" gradientUnits="userSpaceOnUse" x1="303.18" y1="101.24" x2="311.62" y2="109.68" xlink:href="#2"/><linearGradient id="1m" gradientUnits="userSpaceOnUse" x1="297.9" y1="96.82" x2="305.99" y2="104.91" xlink:href="#2"/><linearGradient id="1k" gradientUnits="userSpaceOnUse" x1="286.69" y1="88.83" x2="294.06" y2="96.21" xlink:href="#2"/><linearGradient id="1j" gradientUnits="userSpaceOnUse" x1="280.8" y1="85.29" x2="287.79" y2="92.29" xlink:href="#2"/><linearGradient id="1g" gradientUnits="userSpaceOnUse" x1="262.15" y1="76.58" x2="267.94" y2="82.37" xlink:href="#2"/><linearGradient id="1i" gradientUnits="userSpaceOnUse" x1="274.73" y1="82.07" x2="281.33" y2="88.67" xlink:href="#2"/><linearGradient id="1h" gradientUnits="userSpaceOnUse" x1="268.51" y1="79.16" x2="274.71" y2="85.36" xlink:href="#2"/><linearGradient id="1o" gradientUnits="userSpaceOnUse" x1="308.24" y1="105.94" x2="317" y2="114.7" xlink:href="#2"/><linearGradient id="1p" gradientUnits="userSpaceOnUse" x1="313.06" y1="110.9" x2="322.13" y2="119.97" xlink:href="#2"/><linearGradient id="1v" gradientUnits="userSpaceOnUse" x1="336.33" y1="145.4" x2="346.9" y2="155.97" xlink:href="#2"/><linearGradient id="1x" gradientUnits="userSpaceOnUse" x1="341.69" y1="158.36" x2="352.61" y2="169.29" xlink:href="#2"/><linearGradient id="1w" gradientUnits="userSpaceOnUse" x1="339.17" y1="151.81" x2="349.92" y2="162.56" xlink:href="#2"/><linearGradient id="1u" gradientUnits="userSpaceOnUse" x1="333.18" y1="139.16" x2="343.54" y2="149.52" xlink:href="#2"/><linearGradient id="1t" gradientUnits="userSpaceOnUse" x1="329.72" y1="133.09" x2="339.86" y2="143.23" xlink:href="#2"/><linearGradient id="1q" gradientUnits="userSpaceOnUse" x1="317.63" y1="116.11" x2="327" y2="125.47" xlink:href="#2"/><linearGradient id="1s" gradientUnits="userSpaceOnUse" x1="325.98" y1="127.22" x2="335.87" y2="137.11" xlink:href="#2"/><linearGradient id="1r" gradientUnits="userSpaceOnUse" x1="321.94" y1="121.55" x2="331.58" y2="131.19" xlink:href="#2"/><linearGradient id="1f" gradientUnits="userSpaceOnUse" x1="255.66" y1="74.35" x2="261.02" y2="79.71" xlink:href="#2"/><linearGradient id="1e" gradientUnits="userSpaceOnUse" x1="249.06" y1="72.45" x2="253.99" y2="77.38" xlink:href="#2"/><linearGradient id="1Q" gradientUnits="userSpaceOnUse" x1="150.78" y1="78.949" x2="157" y2="85.17" xlink:href="#2"/><linearGradient id="1S" gradientUnits="userSpaceOnUse" x1="164.47" y1="74.17" x2="169.86" y2="79.55" xlink:href="#2"/><linearGradient id="1R" gradientUnits="userSpaceOnUse" x1="157.56" y1="76.39" x2="163.36" y2="82.2" xlink:href="#2"/><linearGradient id="1P" gradientUnits="userSpaceOnUse" x1="144.15" y1="81.84" x2="150.78" y2="88.47" xlink:href="#2"/><linearGradient id="1O" gradientUnits="userSpaceOnUse" x1="137.69" y1="85.05" x2="144.72" y2="92.08" xlink:href="#2"/><linearGradient id="1L" gradientUnits="userSpaceOnUse" x1="119.48" y1="96.55" x2="127.61" y2="104.69" xlink:href="#2"/><linearGradient id="1N" gradientUnits="userSpaceOnUse" x1="131.41" y1="88.58" x2="138.83" y2="96" xlink:href="#2"/><linearGradient id="1M" gradientUnits="userSpaceOnUse" x1="125.34" y1="92.42" x2="133.12" y2="100.2" xlink:href="#2"/><linearGradient id="1T" gradientUnits="userSpaceOnUse" x1="171.5" y1="72.29" x2="176.46" y2="77.24" xlink:href="#2"/><linearGradient id="1U" gradientUnits="userSpaceOnUse" x1="178.63" y1="70.75" x2="183.15" y2="75.28" xlink:href="#2"/><linearGradient id="1b" gradientUnits="userSpaceOnUse" x1="228.76" y1="68.861" x2="232.37" y2="72.48" xlink:href="#2"/><linearGradient id="1d" gradientUnits="userSpaceOnUse" x1="242.37" y1="70.903" x2="246.86" y2="75.4" xlink:href="#2"/><linearGradient id="1c" gradientUnits="userSpaceOnUse" x1="235.59" y1="69.71" x2="239.65" y2="73.76" xlink:href="#2"/><linearGradient id="1a" gradientUnits="userSpaceOnUse" x1="221.88" y1="68.37" x2="225.05" y2="71.54" xlink:href="#2"/><linearGradient id="1V" gradientUnits="userSpaceOnUse" x1="185.84" y1="69.58" x2="189.93" y2="73.66" xlink:href="#2"/><linearGradient id="1Z" gradientUnits="userSpaceOnUse" x1="214.95" y1="68.21" x2="217.71" y2="70.964" xlink:href="#2"/><linearGradient id="1W" gradientUnits="userSpaceOnUse" x1="193.11" y1="68.75" x2="196.76" y2="72.39" xlink:href="#2"/><linearGradient id="1Y" gradientUnits="userSpaceOnUse" x1="207.77" y1="68.15" x2="210.53" y2="70.914" xlink:href="#2"/><linearGradient id="1X" gradientUnits="userSpaceOnUse" x1="200.43" y1="68.27" x2="203.63" y2="71.48" xlink:href="#2"/><linearGradient id="1y" gradientUnits="userSpaceOnUse" x1="343.88" y1="165.05" x2="354.94" y2="176.12" xlink:href="#2"/><linearGradient id="1z" gradientUnits="userSpaceOnUse" x1="345.74" y1="171.86" x2="356.93" y2="183.05" xlink:href="#2"/><linearGradient id="2Q" gradientUnits="userSpaceOnUse" x1="245.9" y1="321.91" x2="102.27" y2="178.27" xlink:href="#25"/><linearGradient id="2S" gradientUnits="userSpaceOnUse" x1="282.57" y1="284.91" x2="139.43" y2="141.77" xlink:href="#2D"/><linearGradient id="2R" gradientUnits="userSpaceOnUse" x1="304.18" y1="263.74" x2="160.51" y2="120.07" xlink:href="#25"/><linearGradient id="2P" gradientUnits="userSpaceOnUse" x1="281.75" y1="286.08" x2="138.13" y2="142.46" xlink:href="#25"/><linearGradient id="2O" gradientUnits="userSpaceOnUse" x1="352.36" y1="215.44" x2="208.75" y2="71.832" xlink:href="#25"/><linearGradient id="2L" gradientUnits="userSpaceOnUse" x1="260.88" y1="306.86" x2="117.3" y2="163.28" xlink:href="#25"/><linearGradient id="2N" gradientUnits="userSpaceOnUse" x1="216.11" y1="351.68" x2="72.53" y2="208.09" xlink:href="#25"/><linearGradient id="2M" gradientUnits="userSpaceOnUse" x1="225.12" y1="342.68" x2="81.52" y2="199.07" xlink:href="#25"/><linearGradient id="2T" gradientUnits="userSpaceOnUse" x1="234.22" y1="333.6" x2="90.6" y2="189.98" xlink:href="#25"/><linearGradient id="2U" gradientUnits="userSpaceOnUse" x1="345.02" y1="222.8" x2="201.39" y2="79.18" xlink:href="#25"/><linearGradient id="2b" gradientUnits="userSpaceOnUse" x1="194.27" y1="56.51" x2="368.63" y2="230.88" xlink:href="#2H"/><linearGradient id="2d" gradientUnits="userSpaceOnUse" x1="118.13" y1="224.74" x2="106.13" y2="212.75"><stop stop-color="#595959"/><stop offset=".111" stop-color="#505050"/><stop offset=".291" stop-color="#383838"/><stop offset=".517" stop-color="#101010"/><stop offset=".6"/><stop offset=".7" stop-color="#090909"/><stop offset=".862" stop-color="#212121"/><stop offset="1" stop-color="#3b3b3b"/></linearGradient><linearGradient id="2c" gradientUnits="userSpaceOnUse" x1="186.49" y1="64.28" x2="360.87" y2="238.66" xlink:href="#2H"/><linearGradient id="2a" gradientUnits="userSpaceOnUse" x1="66.62" y1="184.17" x2="240.97" y2="358.53" xlink:href="#2H"/><linearGradient id="2V" gradientUnits="userSpaceOnUse" x1="125.33" y1="125.33" x2="299.86" y2="299.86" xlink:href="#2H"/><linearGradient id="2Z" gradientUnits="userSpaceOnUse" x1="196.1" y1="54.678" x2="370.46" y2="229.04" xlink:href="#2H"/><linearGradient id="2W" gradientUnits="userSpaceOnUse" x1="56.57" y1="194.21" x2="230.94" y2="368.57" xlink:href="#2H"/><linearGradient id="2Y" gradientUnits="userSpaceOnUse" x1="123.22" y1="127.56" x2="297.59" y2="301.93" xlink:href="#2H"/><linearGradient id="2X" gradientUnits="userSpaceOnUse" x1="74.53" y1="176.25" x2="248.89" y2="350.61" xlink:href="#2H"/><linearGradient id="2K" gradientUnits="userSpaceOnUse" x1="147.9" y1="102.87" x2="322.27" y2="277.24" xlink:href="#2H"/><linearGradient id="2J" gradientUnits="userSpaceOnUse" x1="127.71" y1="123.07" x2="302.08" y2="297.43" xlink:href="#2H"/><linearGradient id="25" gradientUnits="userSpaceOnUse" x1="138.2" y1="109.84" x2="315.4" y2="287.04"><stop stop-color="#595959"/><stop offset="1" stop-color="#2b2b2b"/></linearGradient><linearGradient id="27" gradientUnits="userSpaceOnUse" x1="52.788" y1="195.26" x2="229.94" y2="372.41" xlink:href="#25"/><linearGradient id="26" gradientUnits="userSpaceOnUse" x1="48.44" y1="199.61" x2="225.59" y2="376.75" xlink:href="#25"/><linearGradient id="24" gradientUnits="userSpaceOnUse" x1="125.33" y1="125.33" x2="299.86" y2="299.86"><stop stop-color="#fafafa"/><stop offset="1" stop-color="#ebebeb"/></linearGradient><linearGradient id="23" gradientUnits="userSpaceOnUse" x1="349.79" y1="199.89" x2="361.25" y2="211.34" xlink:href="#2"/><linearGradient id="20" gradientUnits="userSpaceOnUse" x1="347.26" y1="178.76" x2="358.55" y2="190.05" xlink:href="#2"/><linearGradient id="22" gradientUnits="userSpaceOnUse" x1="349.29" y1="192.79" x2="360.71" y2="204.22" xlink:href="#2"/><linearGradient id="21" gradientUnits="userSpaceOnUse" x1="348.45" y1="185.75" x2="359.82" y2="197.11" xlink:href="#2"/><linearGradient id="28" gradientUnits="userSpaceOnUse" x1="121.82" y1="126.23" x2="298.98" y2="303.38" xlink:href="#25"/><linearGradient id="29" gradientUnits="userSpaceOnUse" x1="196.17" y1="51.895" x2="373.3" y2="229.02" xlink:href="#25"/><linearGradient id="2G" gradientUnits="userSpaceOnUse" x1="91.49" y1="156.59" x2="268.62" y2="333.72" xlink:href="#25"/><linearGradient id="2I" gradientUnits="userSpaceOnUse" x1="111.71" y1="139.07" x2="286.07" y2="313.44" xlink:href="#2H"/><linearGradient id="2H" gradientUnits="userSpaceOnUse" x1="100.07" y1="150.72" x2="274.43" y2="325.07"><stop stop-color="#4a4a4a"/><stop offset="1" stop-color="#1c1c1c"/></linearGradient><linearGradient id="2F" gradientUnits="userSpaceOnUse" x1="71.979" y1="176.1" x2="249.11" y2="353.23" xlink:href="#25"/><linearGradient id="2A" gradientUnits="userSpaceOnUse" x1="106.03" y1="142.02" x2="283.17" y2="319.17" xlink:href="#25"/><linearGradient id="2E" gradientUnits="userSpaceOnUse" x1="192.9" y1="55.15" x2="370.05" y2="232.3" xlink:href="#25"/><linearGradient id="2B" gradientUnits="userSpaceOnUse" x1="96.04" y1="152.01" x2="273.19" y2="329.16" xlink:href="#25"/><linearGradient id="2D" gradientUnits="userSpaceOnUse" x1="124.02" y1="124.03" x2="301.16" y2="301.17"><stop stop-color="#737373"/><stop offset=".092" stop-color="#6a6a6a"/><stop offset=".241" stop-color="#525252"/><stop offset=".428" stop-color="#2a2a2a"/><stop offset=".6"/><stop offset=".7" stop-color="#090909"/><stop offset=".862" stop-color="#212121"/><stop offset="1" stop-color="#3b3b3b"/></linearGradient><linearGradient id="2C" gradientUnits="userSpaceOnUse" x1="51.29" y1="196.76" x2="228.43" y2="373.9" xlink:href="#25"/><linearGradient id="1K" gradientUnits="userSpaceOnUse" x1="113.84" y1="100.97" x2="122.32" y2="109.44" xlink:href="#2"/><linearGradient id="1J" gradientUnits="userSpaceOnUse" x1="108.45" y1="105.66" x2="117.25" y2="114.45" xlink:href="#2"/><linearGradient id="Q" gradientUnits="userSpaceOnUse" x1="261.83" y1="343" x2="267.64" y2="348.81" xlink:href="#2"/><linearGradient id="S" gradientUnits="userSpaceOnUse" x1="248.74" y1="347.95" x2="253.7" y2="352.91" xlink:href="#2"/><linearGradient id="R" gradientUnits="userSpaceOnUse" x1="255.34" y1="345.65" x2="260.73" y2="351.03" xlink:href="#2"/><linearGradient id="P" gradientUnits="userSpaceOnUse" x1="268.2" y1="340.02" x2="274.42" y2="346.25" xlink:href="#2"/><linearGradient id="O" gradientUnits="userSpaceOnUse" x1="274.42" y1="336.72" x2="281.05" y2="343.36" xlink:href="#2"/><linearGradient id="L" gradientUnits="userSpaceOnUse" x1="292.08" y1="325" x2="299.86" y2="332.78" xlink:href="#2"/><linearGradient id="N" gradientUnits="userSpaceOnUse" x1="280.48" y1="333.11" x2="287.51" y2="340.14" xlink:href="#2"/><linearGradient id="M" gradientUnits="userSpaceOnUse" x1="286.37" y1="329.2" x2="293.78" y2="336.61" xlink:href="#2"/><linearGradient id="T" gradientUnits="userSpaceOnUse" x1="242.04" y1="349.92" x2="246.57" y2="354.44" xlink:href="#2"/><linearGradient id="U" gradientUnits="userSpaceOnUse" x1="235.27" y1="351.54" x2="239.36" y2="355.62" xlink:href="#2"/><linearGradient id="a" gradientUnits="userSpaceOnUse" x1="192.83" y1="352.72" x2="196.44" y2="356.34" xlink:href="#2"/><linearGradient id="c" gradientUnits="userSpaceOnUse" x1="178.34" y1="349.8" x2="182.83" y2="354.3" xlink:href="#2"/><linearGradient id="b" gradientUnits="userSpaceOnUse" x1="185.55" y1="351.44" x2="189.61" y2="355.49" xlink:href="#2"/><linearGradient id="Z" gradientUnits="userSpaceOnUse" x1="200.15" y1="353.65" x2="203.32" y2="356.83" xlink:href="#2"/><linearGradient id="Y" gradientUnits="userSpaceOnUse" x1="207.49" y1="354.23" x2="210.24" y2="356.99" xlink:href="#2"/><linearGradient id="V" gradientUnits="userSpaceOnUse" x1="228.44" y1="352.8" x2="232.09" y2="356.45" xlink:href="#2"/><linearGradient id="X" gradientUnits="userSpaceOnUse" x1="214.66" y1="354.28" x2="217.43" y2="357.04" xlink:href="#2"/><linearGradient id="W" gradientUnits="userSpaceOnUse" x1="221.57" y1="353.72" x2="224.77" y2="356.92" xlink:href="#2"/><linearGradient id="K" gradientUnits="userSpaceOnUse" x1="297.59" y1="320.51" x2="305.72" y2="328.65" xlink:href="#2"/><linearGradient id="J" gradientUnits="userSpaceOnUse" x1="302.88" y1="315.76" x2="311.36" y2="324.23" xlink:href="#2"/><linearGradient id="5" gradientUnits="userSpaceOnUse" x1="348.37" y1="228.41" x2="359.73" y2="239.78" xlink:href="#2"/><linearGradient id="7" gradientUnits="userSpaceOnUse" x1="345.62" y1="242.48" x2="356.81" y2="253.67" xlink:href="#2"/><linearGradient id="6" gradientUnits="userSpaceOnUse" x1="347.16" y1="235.48" x2="358.45" y2="246.76" xlink:href="#2"/><linearGradient id="4" gradientUnits="userSpaceOnUse" x1="349.23" y1="221.31" x2="360.64" y2="232.72" xlink:href="#2"/><linearGradient id="3" gradientUnits="userSpaceOnUse" x1="349.75" y1="214.18" x2="361.2" y2="225.63" xlink:href="#2"/><linearGradient id="0" gradientUnits="userSpaceOnUse" x1="87.79" y1="87.79" x2="337.4" y2="337.4"><stop stop-color="#ffff80"/><stop offset=".097" stop-color="#fcf97b"/><stop offset=".223" stop-color="#f3e96c"/><stop offset=".366" stop-color="#e4ce53"/><stop offset=".521" stop-color="#d0a830"/><stop offset=".684" stop-color="#b67805"/><stop offset=".7" stop-color="#b37300"/><stop offset=".744" stop-color="#b67905"/><stop offset=".802" stop-color="#c08914"/><stop offset=".867" stop-color="#d0a42d"/><stop offset=".937" stop-color="#e7ca4e"/><stop offset="1" stop-color="#fff273"/></linearGradient><linearGradient id="2" gradientUnits="userSpaceOnUse" x1="349.95" y1="207.01" x2="361.42" y2="218.48"><stop stop-color="#ffff80"/><stop offset=".6" stop-color="#bf8000"/><stop offset="1" stop-color="#ffcc4d"/></linearGradient><linearGradient id="1" gradientUnits="userSpaceOnUse" x1="88.63" y1="88.63" x2="336.56" y2="336.56"><stop stop-color="#fff979"/><stop offset=".35" stop-color="#ffbf40"/><stop offset=".352" stop-color="#ffc545"/><stop offset=".36" stop-color="#ffd051"/><stop offset=".371" stop-color="#ffd757"/><stop offset=".4" stop-color="#ffd959"/><stop offset=".468" stop-color="#f9d050"/><stop offset=".579" stop-color="#e7b838"/><stop offset=".719" stop-color="#cb9010"/><stop offset=".77" stop-color="#bf8000"/><stop offset=".802" stop-color="#d29717"/><stop offset=".844" stop-color="#e6ae2f"/><stop offset=".889" stop-color="#f4bf40"/><stop offset=".939" stop-color="#fcc94a"/><stop offset="1" stop-color="#ffcc4d"/></linearGradient><linearGradient id="8" gradientUnits="userSpaceOnUse" x1="343.74" y1="249.41" x2="354.81" y2="260.47" xlink:href="#2"/><linearGradient id="9" gradientUnits="userSpaceOnUse" x1="341.53" y1="256.24" x2="352.46" y2="267.16" xlink:href="#2"/><linearGradient id="G" gradientUnits="userSpaceOnUse" x1="317.37" y1="300" x2="326.76" y2="309.39" xlink:href="#2"/><linearGradient id="I" gradientUnits="userSpaceOnUse" x1="307.95" y1="310.74" x2="316.75" y2="319.54" xlink:href="#2"/><linearGradient id="H" gradientUnits="userSpaceOnUse" x1="312.78" y1="305.49" x2="321.89" y2="314.59" xlink:href="#2"/><linearGradient id="F" gradientUnits="userSpaceOnUse" x1="321.68" y1="294.29" x2="331.35" y2="303.96" xlink:href="#2"/><linearGradient id="A" gradientUnits="userSpaceOnUse" x1="338.99" y1="262.96" x2="349.76" y2="273.72" xlink:href="#2"/><linearGradient id="E" gradientUnits="userSpaceOnUse" x1="325.73" y1="288.37" x2="335.66" y2="298.3" xlink:href="#2"/><linearGradient id="B" gradientUnits="userSpaceOnUse" x1="336.14" y1="269.54" x2="346.72" y2="280.13" xlink:href="#2"/><linearGradient id="D" gradientUnits="userSpaceOnUse" x1="329.5" y1="282.27" x2="339.66" y2="292.43" xlink:href="#2"/><linearGradient id="C" gradientUnits="userSpaceOnUse" x1="332.97" y1="275.98" x2="343.35" y2="286.37" xlink:href="#2"/><linearGradient id="d" gradientUnits="userSpaceOnUse" x1="171.21" y1="347.82" x2="176.14" y2="352.75" xlink:href="#2"/><linearGradient id="e" gradientUnits="userSpaceOnUse" x1="164.18" y1="345.49" x2="169.54" y2="350.85" xlink:href="#2"/><linearGradient id="15" gradientUnits="userSpaceOnUse" x1="64.55" y1="192.47" x2="75.969" y2="203.89" xlink:href="#2"/><linearGradient id="17" gradientUnits="userSpaceOnUse" x1="66.75" y1="178.44" x2="78.03" y2="189.72" xlink:href="#2"/><linearGradient id="16" gradientUnits="userSpaceOnUse" x1="65.47" y1="185.42" x2="76.83" y2="196.78" xlink:href="#2"/><linearGradient id="14" gradientUnits="userSpaceOnUse" x1="64" y1="199.57" x2="75.45" y2="211.02" xlink:href="#2"/><linearGradient id="13" gradientUnits="userSpaceOnUse" x1="63.785" y1="206.72" x2="75.25" y2="218.18" xlink:href="#2"/><linearGradient id="10" gradientUnits="userSpaceOnUse" x1="65.38" y1="228.08" x2="76.75" y2="239.45" xlink:href="#2"/><linearGradient id="12" gradientUnits="userSpaceOnUse" x1="63.951" y1="213.86" x2="75.4" y2="225.31" xlink:href="#2"/><linearGradient id="11" gradientUnits="userSpaceOnUse" x1="64.48" y1="220.98" x2="75.906" y2="232.4" xlink:href="#2"/><linearGradient id="18" gradientUnits="userSpaceOnUse" x1="68.39" y1="171.53" x2="79.58" y2="182.72" xlink:href="#2"/><linearGradient id="19" gradientUnits="userSpaceOnUse" x1="70.39" y1="164.72" x2="81.46" y2="175.79" xlink:href="#2"/><linearGradient id="1G" gradientUnits="userSpaceOnUse" x1="93.84" y1="121.24" x2="103.51" y2="130.91" xlink:href="#2"/><linearGradient id="1I" gradientUnits="userSpaceOnUse" x1="103.31" y1="110.61" x2="112.41" y2="119.71" xlink:href="#2"/><linearGradient id="1H" gradientUnits="userSpaceOnUse" x1="98.44" y1="115.81" x2="107.83" y2="125.2" xlink:href="#2"/><linearGradient id="1F" gradientUnits="userSpaceOnUse" x1="89.54" y1="126.9" x2="99.46" y2="136.82" xlink:href="#2"/><linearGradient id="1A" gradientUnits="userSpaceOnUse" x1="72.74" y1="158.03" x2="83.67" y2="168.96" xlink:href="#2"/><linearGradient id="1E" gradientUnits="userSpaceOnUse" x1="85.54" y1="132.77" x2="95.7" y2="142.93" xlink:href="#2"/><linearGradient id="1B" gradientUnits="userSpaceOnUse" x1="75.44" y1="151.48" x2="86.2" y2="162.24" xlink:href="#2"/><linearGradient id="1D" gradientUnits="userSpaceOnUse" x1="81.85" y1="138.83" x2="92.23" y2="149.21" xlink:href="#2"/><linearGradient id="1C" gradientUnits="userSpaceOnUse" x1="78.48" y1="145.07" x2="89.06" y2="155.65" xlink:href="#2"/><linearGradient id="z" gradientUnits="userSpaceOnUse" x1="66.64" y1="235.15" x2="77.935" y2="246.44" xlink:href="#2"/><linearGradient id="y" gradientUnits="userSpaceOnUse" x1="68.27" y1="242.15" x2="79.46" y2="253.34" xlink:href="#2"/><linearGradient id="k" gradientUnits="userSpaceOnUse" x1="125.06" y1="324.78" x2="132.8" y2="332.52" xlink:href="#2"/><linearGradient id="m" gradientUnits="userSpaceOnUse" x1="113.58" y1="315.52" x2="122.01" y2="323.95" xlink:href="#2"/><linearGradient id="l" gradientUnits="userSpaceOnUse" x1="119.21" y1="320.29" x2="127.3" y2="328.38" xlink:href="#2"/><linearGradient id="j" gradientUnits="userSpaceOnUse" x1="131.14" y1="328.99" x2="138.51" y2="336.36" xlink:href="#2"/><linearGradient id="i" gradientUnits="userSpaceOnUse" x1="137.41" y1="332.91" x2="144.4" y2="339.91" xlink:href="#2"/><linearGradient id="f" gradientUnits="userSpaceOnUse" x1="157.26" y1="342.83" x2="163.05" y2="348.61" xlink:href="#2"/><linearGradient id="h" gradientUnits="userSpaceOnUse" x1="143.86" y1="336.53" x2="150.46" y2="343.13" xlink:href="#2"/><linearGradient id="g" gradientUnits="userSpaceOnUse" x1="150.49" y1="339.84" x2="156.68" y2="346.04" xlink:href="#2"/><linearGradient id="n" gradientUnits="userSpaceOnUse" x1="108.2" y1="310.5" x2="116.95" y2="319.26" xlink:href="#2"/><linearGradient id="o" gradientUnits="userSpaceOnUse" x1="103.07" y1="305.23" x2="112.13" y2="314.3" xlink:href="#2"/><linearGradient id="v" gradientUnits="userSpaceOnUse" x1="75.27" y1="262.63" x2="86.03" y2="273.39" xlink:href="#2"/><linearGradient id="x" gradientUnits="userSpaceOnUse" x1="70.25" y1="249.08" x2="81.32" y2="260.14" xlink:href="#2"/><linearGradient id="w" gradientUnits="userSpaceOnUse" x1="72.59" y1="255.91" x2="83.51" y2="266.83" xlink:href="#2"/><linearGradient id="u" gradientUnits="userSpaceOnUse" x1="78.3" y1="269.23" x2="88.87" y2="279.8" xlink:href="#2"/><linearGradient id="p" gradientUnits="userSpaceOnUse" x1="98.2" y1="299.73" x2="107.56" y2="309.09" xlink:href="#2"/><linearGradient id="t" gradientUnits="userSpaceOnUse" x1="81.66" y1="275.68" x2="92.02" y2="286.04" xlink:href="#2"/><linearGradient id="q" gradientUnits="userSpaceOnUse" x1="93.62" y1="294.01" x2="103.26" y2="303.65" xlink:href="#2"/><linearGradient id="s" gradientUnits="userSpaceOnUse" x1="85.34" y1="281.97" x2="95.47" y2="292.11" xlink:href="#2"/><linearGradient id="r" gradientUnits="userSpaceOnUse" x1="89.33" y1="288.08" x2="99.22" y2="297.98" xlink:href="#2"/></defs><path fill="#fff" d="m0 0h425.2v425.2h-425.2z"/><path fill="url(#0)" d="m388.69 210.44l-15.656-11.875 13.356-14.41c1.222-1.319.849-3.439-.751-4.261l-17.479-8.975 10.649-16.511c.975-1.514.239-3.534-1.479-4.065l-18.772-5.804 7.622-18.11c.697-1.658-.379-3.521-2.163-3.746l-19.495-2.454 4.361-19.16c.397-1.755-.984-3.401-2.781-3.312l-19.624.966.966-19.624c.089-1.797-1.56-3.18-3.313-2.78l-19.16 4.36-2.455-19.495c-.226-1.784-2.089-2.86-3.747-2.163l-18.11 7.621-5.804-18.771c-.531-1.719-2.552-2.455-4.064-1.479l-16.512 10.65-8.975-17.479c-.822-1.601-2.941-1.974-4.26-.751l-14.412 13.355-11.873-15.655c-1.087-1.434-3.239-1.434-4.325 0l-11.874 15.655-14.411-13.355c-1.319-1.223-3.438-.85-4.26.751l-8.975 17.479-16.512-10.65c-1.513-.976-3.534-.239-4.066 1.479l-5.803 18.771-18.11-7.621c-1.659-.697-3.521.379-3.745 2.163l-2.456 19.495-19.16-4.36c-1.755-.399-3.402.983-3.313 2.78l.968 19.624-19.626-.968c-1.797-.089-3.18 1.56-2.78 3.314l4.36 19.16-19.494 2.454c-1.785.225-2.86 2.088-2.162 3.746l7.621 18.11-18.773 5.804c-1.717.53-2.455 2.552-1.479 4.063l10.65 16.513-17.48 8.975c-1.601.821-1.973 2.939-.751 4.259l13.356 14.412-15.656 11.875c-1.433 1.086-1.434 3.237 0 4.324l15.656 11.875-13.356 14.41c-1.222 1.319-.85 3.438.751 4.261l17.48 8.975-10.65 16.513c-.977 1.512-.238 3.532 1.479 4.063l18.773 5.804-7.621 18.11c-.698 1.657.377 3.521 2.162 3.746l19.494 2.454-4.36 19.16c-.399 1.753.983 3.401 2.78 3.312l19.626-.966-.968 19.624c-.089 1.797 1.559 3.18 3.313 2.78l19.16-4.36 2.456 19.495c.224 1.785 2.086 2.86 3.745 2.163l18.11-7.622 5.803 18.772c.532 1.719 2.554 2.455 4.066 1.479l16.512-10.65 8.975 17.479c.822 1.601 2.94 1.974 4.26.751l14.411-13.356 11.874 15.656c1.086 1.434 3.238 1.434 4.325 0l11.873-15.656 14.412 13.356c1.318 1.223 3.438.85 4.26-.751l8.975-17.479 16.512 10.65c1.513.976 3.533.239 4.064-1.479l5.804-18.772 18.11 7.622c1.658.697 3.521-.378 3.747-2.163l2.455-19.495 19.16 4.36c1.754.399 3.402-.983 3.313-2.78l-.966-19.624 19.624.966c1.797.089 3.179-1.56 2.781-3.312l-4.361-19.16 19.495-2.454c1.784-.226 2.86-2.089 2.163-3.746l-7.622-18.11 18.772-5.804c1.718-.531 2.453-2.552 1.479-4.063l-10.649-16.513 17.479-8.975c1.6-.823 1.973-2.941.751-4.261l-13.356-14.41 15.656-11.875c1.433-1.087 1.433-3.239 0-4.324"/><path fill="url(#1)" d="m368.77 251.96l17.14-8.801-13.1-14.13c-1.338-1.443-1.148-3.598.42-4.787l15.351-11.642-15.351-11.643c-1.568-1.188-1.758-3.344-.42-4.786l13.1-14.13-17.14-8.801c-1.75-.899-2.311-2.988-1.243-4.643l10.44-16.188-18.408-5.69c-1.88-.582-2.794-2.542-2.03-4.356l7.474-17.755-19.11-2.406c-1.953-.246-3.193-2.02-2.757-3.937l4.275-18.785-19.241.949c-1.967.097-3.495-1.433-3.399-3.397l.947-19.245-18.787 4.278c-1.918.438-3.688-.803-3.936-2.756l-2.405-19.11-17.756 7.471c-1.813.764-3.773-.151-4.355-2.031l-5.69-18.406-16.188 10.443c-1.654 1.066-3.743.507-4.642-1.244l-8.801-17.14-14.13 13.09c-1.443 1.338-3.599 1.149-4.787-.419l-11.642-15.35-11.643 15.35c-1.188 1.568-3.344 1.757-4.787.419l-14.13-13.09-8.801 17.14c-.899 1.751-2.988 2.311-4.642 1.244l-16.189-10.443-5.69 18.406c-.582 1.88-2.542 2.795-4.355 2.031l-17.756-7.471-2.406 19.11c-.246 1.953-2.02 3.193-3.937 2.756l-18.785-4.278.949 19.245c.097 1.965-1.433 3.494-3.397 3.397l-19.245-.949 4.278 18.785c.438 1.92-.803 3.69-2.756 3.937l-19.11 2.406 7.47 17.755c.764 1.814-.151 3.774-2.031 4.356l-18.405 5.69 10.442 16.189c1.066 1.653.507 3.742-1.244 4.642l-17.14 8.801 13.09 14.13c1.338 1.444 1.149 3.6-.419 4.788l-15.349 11.643 15.349 11.642c1.568 1.189 1.757 3.344.419 4.787l-13.09 14.13 17.14 8.801c1.751.898 2.311 2.988 1.244 4.642l-10.445 16.188 18.405 5.691c1.88.581 2.795 2.541 2.031 4.356l-7.47 17.754 19.11 2.405c1.953.247 3.193 2.02 2.756 3.938l-4.278 18.785 19.245-.946c1.965-.097 3.494 1.433 3.397 3.398l-.949 19.241 18.785-4.276c1.92-.436 3.69.805 3.937 2.757l2.406 19.11 17.756-7.473c1.813-.764 3.773.15 4.355 2.03l5.69 18.407 16.188-10.441c1.654-1.066 3.744-.506 4.643 1.244l8.801 17.14 14.13-13.1c1.442-1.338 3.598-1.149 4.786.419l11.643 15.352 11.642-15.352c1.188-1.568 3.344-1.757 4.787-.419l14.13 13.1 8.801-17.14c.898-1.75 2.987-2.311 4.642-1.244l16.188 10.441 5.69-18.407c.582-1.88 2.542-2.794 4.355-2.03l17.756 7.473 2.405-19.11c.247-1.952 2.02-3.192 3.938-2.757l18.785 4.276-.947-19.241c-.096-1.966 1.433-3.495 3.399-3.398l19.241.946-4.275-18.785c-.437-1.919.804-3.69 2.757-3.938l19.11-2.405-7.474-17.756c-.764-1.813.15-3.773 2.03-4.354l18.408-5.691-10.44-16.188c-1.065-1.654-.504-3.744 1.246-4.642"/><path fill="url(#2)" d="m352.4 207c-.718-.654-1.849-.597-2.531.1-.681.697-.654 1.77.06 2.423 0 0 7.02 6.902 8.888 8.927.679.739 1.811.798 2.527.1.719-.696.748-1.884.067-2.623 0-.001-7.05-7.135-9.01-8.927"/><path fill="url(#3)" d="m352.51 213.98c-.683-.689-1.814-.687-2.532-.024-.715.662-.742 1.734-.062 2.423 0 0 6.674 7.238 8.436 9.353.643.772 1.77.886 2.521.225.752-.66.843-1.846.2-2.617-.001-.002-6.695-7.475-8.563-9.36"/><path fill="url(#4)" d="m352.27 220.95c-.647-.722-1.777-.775-2.528-.149-.747.626-.829 1.695-.184 2.416 0 0 6.304 7.558 7.961 9.758.602.803 1.723.973 2.505.349.785-.622.937-1.801.333-2.604 0-.001-6.317-7.796-8.09-9.77"/><path fill="url(#5)" d="m351.69 227.91c-.61-.752-1.737-.86-2.518-.273-.779.588-.915 1.651-.308 2.403 0 0 5.92 7.861 7.465 10.142.561.833 1.672 1.059 2.485.474.816-.582 1.024-1.752.464-2.585.001-.001-5.92-8.1-7.588-10.161"/><path fill="url(#6)" d="m350.77 234.82c-.571-.781-1.692-.946-2.501-.399-.808.549-.996 1.603-.427 2.385 0 0 5.517 8.146 6.946 10.502.52.859 1.617 1.14 2.459.599.844-.542 1.112-1.701.592-2.561 0 0-5.508-8.386-7.07-10.526"/><path fill="url(#7)" d="m349.5 241.68c-.531-.809-1.641-1.031-2.477-.524-.835.507-1.075 1.552-.547 2.36 0 0 5.103 8.412 6.413 10.838.475.884 1.557 1.219 2.425.72.869-.498 1.194-1.642.719-2.526 0-.001-5.079-8.655-6.533-10.868"/><path fill="url(#8)" d="m347.88 248.47c-.49-.835-1.588-1.112-2.448-.647-.857.464-1.15 1.495-.662 2.329 0 0 4.674 8.659 5.86 11.146.432.907 1.495 1.297 2.386.842.894-.454 1.274-1.581.845-2.488-.001-.001-4.639-8.897-5.981-11.182"/><path fill="url(#9)" d="m345.93 255.17c-.447-.859-1.53-1.189-2.411-.77-.881.421-1.225 1.436-.778 2.294 0 0 4.236 8.883 5.296 11.427.385.929 1.428 1.371 2.34.961.915-.408 1.352-1.516.965-2.444-.001 0-4.187-9.117-5.412-11.468"/><path fill="url(#A)" d="m343.64 261.76c-.404-.881-1.469-1.266-2.371-.891-.898.377-1.292 1.373-.889 2.253 0 0 3.789 9.09 4.717 11.68.339.946 1.359 1.441 2.29 1.076.932-.362 1.423-1.445 1.084-2.392 0 0-3.723-9.317-4.831-11.726"/><path fill="url(#B)" d="m341.02 268.23c-.361-.9-1.404-1.338-2.323-1.01-.916.332-1.358 1.307-.998 2.206 0 0 3.33 9.268 4.127 11.902.293.963 1.286 1.508 2.233 1.19.949-.316 1.492-1.374 1.198-2.337.001.001-3.25-9.491-4.237-11.953"/><path fill="url(#C)" d="m338.08 274.55c-.316-.918-1.336-1.408-2.27-1.123-.931.285-1.419 1.239-1.104 2.155 0 0 2.862 9.422 3.529 12.1.245.977 1.211 1.571 2.172 1.3.963-.268 1.556-1.298 1.311-2.274 0-.001-2.778-9.646-3.638-12.153"/><path fill="url(#D)" d="m334.83 280.73c-.271-.932-1.267-1.473-2.211-1.233-.943.237-1.477 1.167-1.208 2.098 0 0 2.39 9.555 2.926 12.26.196.987 1.131 1.629 2.104 1.406.973-.221 1.615-1.222 1.419-2.209-.001-.001-2.298-9.775-3.03-12.322"/><path fill="url(#E)" d="m331.28 286.73c-.225-.946-1.191-1.535-2.146-1.344-.952.191-1.531 1.095-1.308 2.039.332 1.439 1.91 9.661 2.314 12.391.146.996 1.047 1.682 2.031 1.51.982-.173 1.672-1.141 1.522-2.139.001 0-1.81-9.878-2.413-12.457"/><path fill="url(#F)" d="m327.43 292.55c-.179-.957-1.114-1.595-2.077-1.45-.961.146-1.581 1.02-1.404 1.976.268 1.458 1.428 9.744 1.698 12.493.083.99.95 1.721 1.953 1.607.989-.124 1.724-1.058 1.624-2.062 0-.001-1.324-9.961-1.794-12.564"/><path fill="url(#G)" d="m323.29 298.17c-.133-.965-1.035-1.647-2-1.551-.965.1-1.627.941-1.497 1.905.204 1.479.946 9.807 1.075 12.562.026.986.856 1.759 1.872 1.702 1-.068 1.772-.971 1.725-1.979 0 .001-.832-10.02-1.172-12.639"/><path fill="url(#H)" d="m318.88 303.58c-.085-.972-.953-1.697-1.924-1.646-.968.05-1.669.86-1.585 1.83.14 1.497.467 9.852.445 12.594-.023.987.767 1.8 1.784 1.794 1.02-.003 1.822-.881 1.825-1.887.001 0-.333-10.04-.545-12.685"/><path fill="url(#I)" d="m312.38 307.02c-.968.005-1.708.78-1.672 1.755.071 1.507-.013 9.872-.186 12.593-.07.986.679 1.838 1.693 1.879 1.032.063 1.868-.782 1.923-1.786 0 0 .172-10.04.081-12.699-.038-.975-.869-1.744-1.839-1.742"/><path fill="url(#J)" d="m307.54 311.88c-.967-.044-1.742.696-1.754 1.672 0 1.513-.493 9.869-.814 12.562-.118.982.587 1.869 1.598 1.961 1.024.11 1.917-.674 2.01-1.683 0 0 .676-10.01.706-12.684.01-.976-.783-1.784-1.751-1.828"/><path fill="url(#K)" d="m302.48 316.49c-.963-.09-1.772.612-1.831 1.587-.071 1.514-.975 9.842-1.442 12.498-.167.977.494 1.897 1.498 2.039 1.016.157 1.961-.562 2.101-1.575 0 0 1.179-9.959 1.331-12.634.057-.976-.694-1.824-1.657-1.915"/><path fill="url(#L)" d="m297.19 320.84c-.955-.136-1.799.526-1.904 1.498-.155 1.497-1.455 9.793-2.066 12.404-.215.969.399 1.921 1.396 2.111 1 .199 1.995-.451 2.18-1.462 0 0 1.68-9.88 1.957-12.557.103-.972-.605-1.857-1.563-1.994"/><path fill="url(#M)" d="m291.69 324.93c-.946-.183-1.819.438-1.973 1.404 0 0-1.947 9.698-2.687 12.28-.261.956.305 1.938 1.289 2.176.984.24 2.02-.342 2.255-1.346 0 0 2.175-9.774 2.575-12.446.154-.968-.509-1.885-1.459-2.068"/><path fill="url(#N)" d="m285.99 328.74c-.936-.229-1.838.351-2.039 1.309 0 0-2.434 9.577-3.298 12.12-.31.943.207 1.953 1.177 2.238.967.28 2.042-.231 2.323-1.226 0 0 2.662-9.651 3.192-12.305.2-.959-.417-1.908-1.355-2.139"/><path fill="url(#O)" d="m280.12 332.26c-.925-.275-1.85.266-2.102 1.205 0 0-2.913 9.437-3.901 11.939-.355.929.109 1.962 1.063 2.296.952.327 2.048-.136 2.384-1.103 0 0 3.144-9.504 3.802-12.133.247-.948-.321-1.928-1.246-2.204"/><path fill="url(#P)" d="m274.07 335.49c-.91-.324-1.854.184-2.16 1.092 0 0-3.382 9.278-4.494 11.731-.401.91.011 1.966.948 2.347.935.377 2.048-.042 2.438-.977 0 0 3.616-9.332 4.402-11.93.295-.936-.225-1.942-1.134-2.263"/><path fill="url(#Q)" d="m267.87 338.4c-.894-.373-1.856.101-2.216.979 0 0-3.842 9.1-5.074 11.493-.446.89-.088 1.963.828 2.39s2.044.052 2.487-.847c0 0 4.081-9.138 4.994-11.697.339-.921-.127-1.951-1.019-2.318"/><path fill="url(#R)" d="m261.54 341c-.874-.417-1.856.013-2.263.861 0 0-4.294 8.89-5.646 11.226-.489.866-.185 1.957.708 2.43.894.473 2.038.147 2.527-.718 0 0 4.536-8.918 5.575-11.432.386-.905-.029-1.958-.901-2.367"/><path fill="url(#S)" d="m255.08 343.28c-.851-.456-1.858-.086-2.305.742 0 0-4.735 8.664-6.202 10.931-.533.841-.283 1.945.585 2.461.869.518 2.027.25 2.56-.591 0 0 4.981-8.673 6.145-11.135.429-.883.067-1.957-.783-2.408"/><path fill="url(#T)" d="m248.52 345.24c-.825-.493-1.851-.182-2.339.624 0 0-5.163 8.416-6.743 10.605-.573.812-.38 1.93.463 2.488.841.561 2.01.35 2.584-.463 0 0 5.411-8.407 6.696-10.811.473-.861.165-1.949-.661-2.443"/><path fill="url(#U)" d="m241.86 346.86c-.799-.534-1.84-.276-2.367.504 0 0-5.58 8.147-7.266 10.256-.614.783-.476 1.907.337 2.508.811.602 1.991.451 2.604-.332 0 0 5.826-8.125 7.23-10.461.515-.839.263-1.941-.538-2.475"/><path fill="url(#V)" d="m235.13 348.14c-.771-.572-1.823-.365-2.391.387 0 0-5.979 7.861-7.768 9.88-.651.751-.57 1.882.211 2.521.782.644 1.967.552 2.618-.2 0 0 6.223-7.826 7.741-10.09.559-.812.361-1.926-.411-2.499"/><path fill="url(#W)" d="m228.35 349.08c-.744-.615-1.804-.452-2.407.271 0 0-6.363 7.558-8.249 9.481-.688.717-.662 1.849.086 2.528.748.678 1.936.657 2.624-.074 0 0 6.603-7.507 8.233-9.69.596-.783.455-1.906-.287-2.516"/><path fill="url(#X)" d="m221.52 349.69c-.712-.659-1.778-.534-2.417.155 0 0-6.729 7.241-8.708 9.06-.722.681-.752 1.814-.036 2.529.714.71 1.9.767 2.623.047 0 0 6.963-7.172 8.7-9.269.635-.749.55-1.878-.162-2.526"/><path fill="url(#Y)" d="m214.71 352.49c.672-.718.643-1.85-.038-2.532-.68-.688-1.751-.634-2.423.046 0 0-7.08 6.904-9.142 8.623-.754.644-.841 1.773-.161 2.524.678.741 1.86.872 2.619.168 0 0 7.305-6.827 9.145-8.829"/><path fill="url(#Z)" d="m207.82 349.89c-.645-.717-1.719-.733-2.424-.066 0 0-7.406 6.549-9.553 8.16-.787.604-.929 1.729-.287 2.513.64.781 1.816.955 2.607.292 0 0 7.635-6.463 9.57-8.368.707-.683.733-1.814.087-2.531"/><path fill="url(#a)" d="m200.98 349.48c-.607-.746-1.678-.826-2.416-.181 0 0-7.722 6.172-9.947 7.672-.815.565-1.013 1.681-.412 2.496.601.816 1.77 1.04 2.593.419 0 0 7.945-6.08 9.973-7.882.736-.646.817-1.775.209-2.524"/><path fill="url(#b)" d="m194.16 348.74c-.569-.775-1.633-.909-2.401-.303 0 0-8.02 5.781-10.32 7.168-.841.523-1.095 1.628-.535 2.473.558.847 1.714 1.127 2.567.548 0 0 8.241-5.678 10.354-7.375.769-.609.907-1.732.335-2.511"/><path fill="url(#c)" d="m187.4 347.66c-.53-.804-1.586-.991-2.385-.425 0 0-8.3 5.372-10.664 6.644-.868.479-1.176 1.57-.659 2.442.516.87 1.654 1.212 2.537.676 0 0 8.516-5.259 10.709-6.848.8-.568.994-1.684.462-2.489"/><path fill="url(#d)" d="m180.7 346.25c-.49-.828-1.534-1.069-2.359-.542 0 0-8.56 4.943-10.984 6.097-.892.438-1.254 1.51-.782 2.406.473.893 1.592 1.297 2.499.806 0 0 8.771-4.825 11.04-6.302.826-.529 1.075-1.633.586-2.465"/><path fill="url(#e)" d="m174.08 344.5c-.448-.853-1.479-1.145-2.33-.66 0 0-8.793 4.503-11.275 5.535-.912.392-1.328 1.446-.901 2.363.43.91 1.521 1.381 2.454.934 0 0 9-4.379 11.344-5.741.852-.486 1.154-1.576.708-2.431"/><path fill="url(#f)" d="m167.56 342.42c-.404-.876-1.422-1.212-2.293-.779 0 0-9.01 4.051-11.54 4.962-.931.347-1.398 1.379-1.02 2.315.384.93 1.455 1.45 2.404 1.06 0 0 9.209-3.92 11.617-5.166.876-.443 1.236-1.517.832-2.392"/><path fill="url(#g)" d="m160.19 342.36c.896-.397 1.31-1.452.949-2.348-.358-.896-1.362-1.271-2.248-.897 0 0-9.198 3.593-11.775 4.38-.948.3-1.466 1.307-1.133 2.261.334.951 1.384 1.512 2.344 1.184 0 0 9.394-3.453 11.863-4.58"/><path fill="url(#h)" d="m153.79 339.58c.916-.354 1.381-1.386 1.065-2.297-.311-.917-1.301-1.329-2.198-1.016 0 0-9.364 3.126-11.98 3.787-.962.254-1.531 1.233-1.245 2.203.286.969 1.313 1.565 2.279 1.305 0 0 9.555-2.977 12.08-3.982"/><path fill="url(#i)" d="m147.54 336.49c.932-.308 1.447-1.316 1.179-2.241-.266-.931-1.236-1.386-2.143-1.129 0 0-9.508 2.651-12.154 3.187-.975.206-1.592 1.157-1.354 2.139.234.982 1.235 1.622 2.21 1.416-.001-.001 9.688-2.491 12.262-3.372"/><path fill="url(#j)" d="m141.45 333.1c.948-.265 1.515-1.244 1.29-2.181-.223-.935-1.16-1.456-2.079-1.24 0 0-9.626 2.17-12.302 2.58-.984.157-1.647 1.076-1.457 2.066.186.992 1.154 1.68 2.139 1.522 0 .001 9.793-1.993 12.409-2.747"/><path fill="url(#k)" d="m135.53 329.39c.96-.216 1.573-1.168 1.396-2.112-.183-.935-1.08-1.521-2.01-1.349 0 0-9.716 1.681-12.417 1.967-.991.11-1.7.994-1.56 1.992.138 1 1.072 1.733 2.063 1.622 1.513-.162 9.875-1.494 12.528-2.12"/><path fill="url(#l)" d="m129.81 325.4c.971-.169 1.631-1.088 1.5-2.04-.142-.936-.995-1.584-1.937-1.454 0 0-9.78 1.188-12.502 1.352-.997.062-1.748.91-1.656 1.912.09 1 .987 1.782 1.983 1.719 1.51-.076 9.943-1.01 12.612-1.489"/><path fill="url(#m)" d="m124.28 321.14c.978-.122 1.684-1.01 1.6-1.965-.098-.938-.902-1.646-1.857-1.553 0 0-9.82.692-12.556.731-.999.014-1.792.824-1.749 1.829.04 1.01.9 1.826 1.899 1.811 1.514-.003 9.986-.526 12.663-.853"/><path fill="url(#n)" d="m118.98 316.6c.984-.073 1.732-.923 1.694-1.881-.054-.939-.804-1.707-1.773-1.651 0 0-9.833.199-12.578.112-.999-.034-1.831.735-1.837 1.74-.009 1.01.811 1.865 1.811 1.899 1.515.069 10.01-.039 12.683-.219"/><path fill="url(#o)" d="m113.91 311.81c.988-.026 1.777-.838 1.786-1.796.007-.954-.715-1.749-1.683-1.742 0 0-9.824-.297-12.573-.509-.997-.084-1.866.644-1.921 1.646-.057 1 .721 1.902 1.719 1.984 1.516.137 10.01.447 12.672.417"/><path fill="url(#p)" d="m109.08 306.77c.988.021 1.817-.75 1.871-1.705.072-.97-.623-1.784-1.588-1.829 0 0-9.797-.784-12.534-1.129-.993-.132-1.896.551-2 1.549-.106.998.628 1.933 1.62 2.064 1.519.204 9.985.933 12.631 1.05"/><path fill="url(#q)" d="m104.51 301.49c.978.078 1.844-.652 1.954-1.61.127-.969-.535-1.812-1.494-1.906 0 0-9.75-1.264-12.466-1.747-.986-.181-1.923.458-2.075 1.447-.155.992.533 1.961 1.521 2.141 1.515.271 9.929 1.423 12.56 1.675"/><path fill="url(#r)" d="m100.22 295.99c.959.137 1.86-.549 2.033-1.511s-.447-1.836-1.403-1.975c0 0-9.68-1.745-12.366-2.364-.978-.228-1.944.361-2.144 1.343-.202.983.438 1.982 1.415 2.212 1.508.342 9.847 1.915 12.465 2.295"/><path fill="url(#s)" d="m96.2 290.29c.95.186 1.884-.455 2.104-1.408.221-.951-.357-1.854-1.306-2.04 0 0-9.585-2.221-12.236-2.974-.965-.277-1.961.264-2.208 1.233-.251.971.341 2 1.307 2.277 0 .001 9.74 2.404 12.339 2.912"/><path fill="url(#t)" d="m92.47 284.39c.941.232 1.905-.361 2.173-1.301.267-.938-.268-1.868-1.206-2.1 0 0-9.467-2.695-12.08-3.58-.95-.324-1.973.166-2.268 1.122-.297.955.244 2.01 1.196 2.337 0 0 9.608 2.887 12.18 3.522"/><path fill="url(#u)" d="m89.04 278.31c.928.277 1.921-.267 2.234-1.191.311-.924-.177-1.878-1.104-2.156 0 0-9.324-3.163-11.882-4.179-.935-.371-1.98.068-2.322 1.01-.344.939.145 2.02 1.08 2.393.001 0 9.453 3.363 11.994 4.125"/><path fill="url(#v)" d="m85.92 272.07c.915.323 1.933-.17 2.291-1.077.357-.906-.084-1.883-.997-2.207 0 0-9.154-3.625-11.661-4.768-.914-.418-1.979-.032-2.367.889-.391.921.045 2.026.962 2.443 0 .001 9.273 3.833 11.772 4.72"/><path fill="url(#w)" d="m83.11 265.69c.897.369 1.939-.073 2.344-.962.399-.886.008-1.884-.889-2.252 0 0-8.961-4.08-11.408-5.348-.893-.462-1.977-.131-2.409.77-.436.9-.055 2.025.839 2.489 0 0 9.07 4.291 11.523 5.303"/><path fill="url(#x)" d="m80.62 259.17c.88.413 1.943.023 2.39-.843.443-.866.101-1.881-.777-2.294 0 0-8.743-4.524-11.126-5.913-.869-.507-1.968-.229-2.444.647-.479.877-.155 2.02.715 2.527-.001.001 8.848 4.742 11.242 5.876"/><path fill="url(#y)" d="m78.47 252.53c.856.456 1.938.121 2.426-.721.488-.843.195-1.873-.66-2.331 0 0-8.505-4.957-10.815-6.463-.844-.55-1.954-.329-2.475.523-.523.852-.256 2.01.588 2.561-.001.001 8.6 5.179 10.936 6.431"/><path fill="url(#z)" d="m76.65 245.8c.833.498 1.929.219 2.459-.599.529-.816.288-1.86-.543-2.36 0 0-8.246-5.379-10.478-6.998-.816-.591-1.937-.426-2.498.399-.565.823-.357 1.994.458 2.586.001 0 8.331 5.604 10.602 6.972"/><path fill="url(#10)" d="m75.17 238.98c.809.54 1.917.316 2.487-.475.568-.789.38-1.843-.425-2.384 0 0-7.966-5.785-10.114-7.513-.784-.631-1.911-.522-2.515.273-.604.794-.457 1.975.33 2.605.001.002 8.04 6.01 10.237 7.494"/><path fill="url(#11)" d="m74.04 232.1c.779.58 1.897.41 2.508-.35.606-.761.473-1.823-.306-2.404 0 0-7.669-6.174-9.726-8.01-.751-.67-1.883-.615-2.525.148-.645.764-.555 1.948.197 2.618.001.001 7.729 6.406 9.852 7.994"/><path fill="url(#12)" d="m73.25 225.16c.749.617 1.876.504 2.522-.226.646-.729.563-1.798-.184-2.416 0 0-7.353-6.548-9.314-8.479-.717-.705-1.85-.708-2.529.024-.683.731-.653 1.919.064 2.624.001.001 7.398 6.78 9.441 8.473"/><path fill="url(#13)" d="m72.799 218.2c.717.654 1.847.597 2.53-.101.681-.695.653-1.768-.062-2.422 0 0-7.02-6.902-8.885-8.927-.681-.74-1.812-.797-2.529-.1-.719.696-.748 1.884-.067 2.623 0 .001 7.05 7.135 9.01 8.927"/><path fill="url(#14)" d="m72.69 211.22c.682.689 1.813.688 2.531.025.717-.662.743-1.733.062-2.423 0 0-6.674-7.237-8.436-9.352-.643-.773-1.77-.887-2.52-.225-.754.66-.844 1.846-.201 2.617.002.001 6.696 7.473 8.564 9.358"/><path fill="url(#15)" d="m72.926 204.25c.647.722 1.778.774 2.528.148.748-.625.829-1.694.185-2.415 0 0-6.305-7.559-7.962-9.758-.602-.804-1.722-.973-2.505-.351-.785.623-.935 1.803-.333 2.605 0 .002 6.317 7.797 8.09 9.771"/><path fill="url(#16)" d="m73.5 197.29c.61.753 1.737.862 2.519.274.777-.589.913-1.651.307-2.403 0 0-5.918-7.861-7.465-10.141-.562-.833-1.672-1.059-2.485-.475-.816.583-1.025 1.753-.464 2.585-.001.001 5.92 8.101 7.588 10.16"/><path fill="url(#17)" d="m74.43 190.38c.57.781 1.691.946 2.5.398.808-.548.996-1.604.427-2.384 0 0-5.517-8.147-6.946-10.502-.52-.859-1.618-1.141-2.459-.599-.843.54-1.112 1.699-.592 2.559-.001.001 5.506 8.387 7.07 10.528"/><path fill="url(#18)" d="m75.7 183.51c.532.81 1.643 1.03 2.479.523.833-.507 1.075-1.55.545-2.358 0 0-5.103-8.413-6.412-10.838-.476-.885-1.557-1.22-2.425-.721-.869.498-1.194 1.643-.719 2.526 0 0 5.08 8.653 6.532 10.868"/><path fill="url(#19)" d="m77.32 176.73c.49.836 1.588 1.111 2.448.648.857-.465 1.15-1.496.662-2.331 0 0-4.675-8.658-5.86-11.146-.431-.907-1.495-1.297-2.387-.841-.893.454-1.274 1.579-.843 2.487.001.001 4.639 8.897 5.98 11.183"/><path fill="url(#1A)" d="m79.27 170.03c.448.859 1.531 1.191 2.412.771.88-.422 1.225-1.436.778-2.294 0 0-4.236-8.885-5.295-11.427-.387-.929-1.43-1.371-2.342-.961-.913.408-1.35 1.515-.964 2.443 0 .002 4.185 9.119 5.411 11.468"/><path fill="url(#1B)" d="m81.56 163.44c.405.881 1.47 1.267 2.372.891.897-.376 1.292-1.372.888-2.253 0 0-3.787-9.09-4.717-11.68-.338-.945-1.357-1.44-2.289-1.076-.933.362-1.423 1.446-1.083 2.393 0 0 3.721 9.316 4.829 11.725"/><path fill="url(#1C)" d="m84.17 156.97c.362.9 1.405 1.338 2.324 1.01.916-.331 1.357-1.308.997-2.206 0 0-3.02-8.241-4.128-11.903-.291-.963-1.284-1.506-2.231-1.189-.949.315-1.491 1.374-1.199 2.337 0-.001 3.251 9.491 4.237 11.953"/><path fill="url(#1D)" d="m87.11 150.65c.315.917 1.337 1.406 2.269 1.123.933-.286 1.421-1.239 1.104-2.156 0 0-2.861-9.422-3.529-12.1-.244-.977-1.21-1.569-2.172-1.299-.961.269-1.555 1.298-1.309 2.275.001 0 2.777 9.645 3.637 12.153"/><path fill="url(#1E)" d="m90.36 144.47c.271.934 1.267 1.474 2.212 1.235.942-.239 1.478-1.169 1.207-2.1 0 0-2.388-9.554-2.926-12.259-.194-.987-1.129-1.629-2.103-1.405-.974.221-1.616 1.221-1.419 2.209.001 0 2.298 9.774 3.03 12.32"/><path fill="url(#1F)" d="m93.92 138.47c.226.945 1.191 1.535 2.146 1.344.953-.192 1.531-1.095 1.309-2.039-.333-1.438-1.911-9.661-2.314-12.392-.146-.994-1.047-1.682-2.03-1.509s-1.672 1.141-1.524 2.138c-.001 0 1.811 9.88 2.413 12.458"/><path fill="url(#1G)" d="m97.77 132.65c.179.956 1.114 1.593 2.077 1.449.96-.146 1.581-1.021 1.403-1.975-.266-1.46-1.428-9.745-1.697-12.493-.083-.991-.951-1.721-1.954-1.609-.989.125-1.724 1.06-1.624 2.063 0 .001 1.322 9.96 1.795 12.565"/><path fill="url(#1H)" d="m101.9 127.03c.134.966 1.036 1.647 2 1.55.965-.098 1.627-.94 1.496-1.904-.203-1.479-.944-9.808-1.074-12.562-.025-.986-.854-1.758-1.872-1.703-.999.069-1.773.972-1.724 1.979 0 .001.831 10.02 1.171 12.64"/><path fill="url(#1I)" d="m106.31 121.62c.084.972.952 1.698 1.924 1.648.967-.052 1.669-.861 1.585-1.832-.141-1.495-.468-9.851-.444-12.593.021-.987-.769-1.8-1.784-1.793-1.02.003-1.822.879-1.827 1.886 0 .001.335 10.05.546 12.684"/><path fill="url(#1J)" d="m112.82 118.18c.969-.003 1.708-.78 1.672-1.754-.071-1.507.013-9.872.186-12.594.07-.984-.679-1.836-1.694-1.879-1.03-.062-1.866.783-1.922 1.787 0 0-.172 10.04-.08 12.699.037.975.868 1.744 1.838 1.741"/><path fill="url(#1K)" d="m117.66 113.32c.966.043 1.74-.696 1.753-1.672 0-1.513.493-9.87.813-12.562.12-.981-.587-1.868-1.598-1.96-1.023-.111-1.917.673-2.01 1.683 0 0-.677 10.01-.706 12.682-.008.976.783 1.785 1.752 1.829"/><path fill="url(#1L)" d="m122.72 108.71c.961.09 1.771-.611 1.829-1.587.073-1.514.976-9.843 1.442-12.498.168-.977-.493-1.897-1.498-2.038-1.015-.158-1.961.561-2.1 1.574 0 0-1.18 9.959-1.333 12.635-.057.976.695 1.823 1.66 1.914"/><path fill="url(#1M)" d="m128.01 104.35c.955.137 1.798-.526 1.903-1.498.155-1.497 1.455-9.794 2.066-12.405.215-.968-.399-1.919-1.396-2.109-1-.201-1.995.451-2.18 1.461 0 0-1.68 9.88-1.956 12.557-.103.971.605 1.855 1.563 1.994"/><path fill="url(#1N)" d="m133.51 100.26c.948.184 1.821-.438 1.975-1.404 0 0 1.946-9.697 2.686-12.279.261-.956-.304-1.938-1.287-2.177-.985-.24-2.02.342-2.256 1.345 0 0-2.176 9.775-2.575 12.447-.155.967.509 1.884 1.457 2.068"/><path fill="url(#1O)" d="m139.21 96.45c.936.229 1.837-.35 2.038-1.308 0 0 2.436-9.578 3.3-12.12.308-.943-.209-1.952-1.178-2.239-.967-.279-2.042.232-2.323 1.226 0 0-2.663 9.651-3.191 12.307-.201.958.416 1.908 1.354 2.138"/><path fill="url(#1P)" d="m145.08 92.93c.924.276 1.85-.264 2.102-1.204 0 0 2.912-9.436 3.902-11.94.354-.927-.11-1.96-1.064-2.294-.952-.328-2.048.134-2.385 1.101 0 0-3.143 9.505-3.801 12.134-.247.949.321 1.927 1.246 2.203"/><path fill="url(#1Q)" d="m151.13 89.71c.91.325 1.854-.183 2.162-1.093 0 0 3.382-9.276 4.494-11.731.4-.909-.013-1.965-.948-2.345-.937-.379-2.048.042-2.439.976 0 0-3.616 9.332-4.402 11.93-.295.937.225 1.943 1.133 2.263"/><path fill="url(#1R)" d="m157.32 86.8c.895.372 1.856-.101 2.216-.978 0 0 3.843-9.1 5.075-11.493.447-.89.087-1.965-.828-2.391-.916-.427-2.044-.052-2.486.848 0 0-4.083 9.137-4.995 11.696-.341.922.128 1.953 1.018 2.318"/><path fill="url(#1S)" d="m163.66 84.19c.874.418 1.858-.012 2.263-.861 0 0 4.295-8.89 5.646-11.225.489-.867.186-1.958-.709-2.43-.894-.475-2.036-.148-2.526.718 0 0-4.537 8.918-5.576 11.432-.385.905.03 1.957.902 2.366"/><path fill="url(#1T)" d="m170.12 81.914c.85.455 1.857.085 2.305-.744 0 0 4.734-8.662 6.201-10.929.533-.841.284-1.946-.584-2.462-.869-.518-2.027-.249-2.56.592 0 0-4.981 8.673-6.146 11.134-.428.885-.065 1.958.784 2.409"/><path fill="url(#1U)" d="m176.68 79.961c.825.494 1.851.183 2.339-.624 0 0 5.165-8.415 6.743-10.604.574-.812.381-1.93-.461-2.488-.841-.561-2.01-.352-2.586.463 0 0-5.41 8.407-6.695 10.811-.473.86-.166 1.95.66 2.442"/><path fill="url(#1V)" d="m183.34 78.34c.8.533 1.841.276 2.368-.505 0 0 5.579-8.147 7.266-10.255.614-.783.477-1.907-.336-2.508-.812-.603-1.991-.451-2.605.332 0 0-5.824 8.125-7.229 10.461-.517.838-.263 1.942.536 2.475"/><path fill="url(#1W)" d="m190.06 77.06c.771.573 1.823.366 2.389-.388 0 0 5.98-7.86 7.77-9.879.652-.751.57-1.881-.211-2.521-.782-.644-1.967-.552-2.619.198 0 0-6.221 7.827-7.741 10.09-.558.811-.361 1.925.412 2.499"/><path fill="url(#1X)" d="m196.85 76.11c.744.615 1.805.452 2.407-.271 0 0 6.363-7.558 8.25-9.482.688-.716.66-1.85-.088-2.527s-1.936-.658-2.623.074c0 0-6.604 7.507-8.233 9.689-.597.782-.457 1.906.287 2.517"/><path fill="url(#1Y)" d="m203.68 75.51c.711.658 1.779.534 2.418-.155 0 0 6.729-7.241 8.705-9.06.723-.681.753-1.814.039-2.53-.714-.709-1.901-.766-2.624-.047 0 0-6.964 7.173-8.7 9.27-.636.749-.55 1.878.162 2.526"/><path fill="url(#1Z)" d="m210.49 72.71c-.672.718-.642 1.85.037 2.532.68.688 1.751.634 2.424-.046 0 0 7.08-6.905 9.142-8.624.755-.644.84-1.772.161-2.523-.678-.741-1.861-.872-2.618-.168 0 0-7.307 6.825-9.146 8.829"/><path fill="url(#1a)" d="m217.38 75.31c.645.717 1.718.733 2.423.066 0 0 7.407-6.549 9.554-8.16.787-.604.929-1.729.287-2.514-.64-.78-1.817-.954-2.608-.292 0 0-7.635 6.463-9.569 8.368-.706.683-.732 1.815-.087 2.532"/><path fill="url(#1b)" d="m224.22 75.72c.607.746 1.678.826 2.415.181 0 0 7.724-6.172 9.948-7.672.815-.565 1.013-1.681.411-2.497-.6-.815-1.769-1.039-2.592-.418 0 0-7.946 6.078-9.972 7.882-.739.646-.82 1.775-.21 2.524"/><path fill="url(#1c)" d="m231.03 76.46c.571.775 1.634.909 2.403.303 0 0 8.02-5.781 10.318-7.168.842-.523 1.096-1.628.536-2.474-.559-.846-1.715-1.126-2.568-.547 0 0-8.241 5.678-10.353 7.375-.768.608-.907 1.733-.336 2.511"/><path fill="url(#1d)" d="m237.79 77.53c.531.804 1.586.991 2.385.425 0 0 8.3-5.372 10.665-6.644.868-.479 1.176-1.57.659-2.442-.517-.87-1.655-1.212-2.537-.677 0 0-8.516 5.26-10.709 6.849-.799.568-.993 1.684-.463 2.489"/><path fill="url(#1e)" d="m244.5 78.951c.489.828 1.534 1.069 2.36.542 0 0 8.558-4.945 10.984-6.098.89-.437 1.254-1.509.781-2.405-.472-.893-1.592-1.297-2.5-.807 0 0-8.77 4.826-11.04 6.303-.825.53-1.074 1.633-.585 2.465"/><path fill="url(#1f)" d="m251.12 80.7c.447.853 1.479 1.145 2.33.66 0 0 8.794-4.503 11.275-5.535.912-.392 1.328-1.446.901-2.364-.429-.909-1.522-1.38-2.455-.934 0 0-9 4.38-11.343 5.742-.85.486-1.155 1.578-.708 2.431"/><path fill="url(#1g)" d="m257.64 82.78c.403.876 1.422 1.211 2.292.779 0 0 9.01-4.053 11.541-4.962.931-.347 1.399-1.379 1.019-2.315-.384-.93-1.454-1.45-2.403-1.061 0 0-9.209 3.921-11.618 5.167-.876.443-1.236 1.517-.831 2.392"/><path fill="url(#1h)" d="m265 82.84c-.896.399-1.309 1.454-.948 2.35.357.896 1.361 1.271 2.247.897 0 0 9.198-3.593 11.775-4.38.948-.301 1.467-1.307 1.134-2.263-.334-.95-1.383-1.51-2.344-1.184 0 .001-9.394 3.455-11.864 4.58"/><path fill="url(#1i)" d="m271.4 85.61c-.916.355-1.381 1.387-1.066 2.298.312.917 1.302 1.33 2.198 1.016 0 0 9.365-3.126 11.98-3.788.962-.253 1.531-1.232 1.245-2.202-.285-.969-1.312-1.567-2.278-1.305 0 0-9.555 2.977-12.08 3.981"/><path fill="url(#1j)" d="m277.66 88.7c-.933.308-1.448 1.316-1.179 2.24.266.932 1.237 1.387 2.142 1.129 0 0 9.508-2.65 12.156-3.186.974-.206 1.592-1.157 1.354-2.139-.235-.982-1.236-1.623-2.211-1.416 0 .001-9.687 2.49-12.262 3.372"/><path fill="url(#1k)" d="m283.75 92.1c-.948.263-1.515 1.244-1.29 2.181.224.935 1.16 1.456 2.079 1.24 0 0 9.627-2.172 12.302-2.58.983-.157 1.647-1.076 1.458-2.067-.187-.992-1.155-1.681-2.14-1.521 0-.002-9.793 1.993-12.409 2.747"/><path fill="url(#1l)" d="m289.67 95.8c-.96.217-1.574 1.168-1.396 2.113.184.935 1.08 1.521 2.01 1.349 0 0 9.716-1.681 12.417-1.967.991-.11 1.699-.994 1.56-1.993-.139-.999-1.073-1.732-2.065-1.621-1.512.161-9.874 1.491-12.527 2.119"/><path fill="url(#1m)" d="m295.39 99.79c-.97.169-1.63 1.088-1.499 2.04.142.936.995 1.584 1.938 1.454 0 0 9.779-1.189 12.5-1.352.997-.062 1.749-.91 1.656-1.912-.089-1-.987-1.782-1.983-1.721-1.509.078-9.942 1.012-12.612 1.491"/><path fill="url(#1n)" d="m300.91 104.06c-.979.121-1.683 1.01-1.6 1.963.098.939.901 1.648 1.857 1.555 0 0 9.82-.692 12.557-.731.998-.014 1.791-.824 1.748-1.829-.041-1.01-.9-1.826-1.9-1.812-1.512.003-9.986.524-12.662.854"/><path fill="url(#1o)" d="m306.29 112.13c0 0 9.834-.197 12.579-.111.999.035 1.831-.734 1.838-1.739.008-1.01-.812-1.866-1.812-1.9-1.516-.067-10.01.04-12.684.219-.985.074-1.732.925-1.695 1.883.055.938.806 1.704 1.774 1.648"/><path fill="url(#1p)" d="m323.76 117.44c.998.084 1.867-.644 1.921-1.646.059-1-.72-1.901-1.717-1.984-1.517-.138-10.01-.445-12.673-.415-.988.026-1.776.838-1.786 1.796-.007.954.715 1.748 1.683 1.742 0-.001 9.823.296 12.572.507"/><path fill="url(#1q)" d="m328.37 123.09c.992.132 1.896-.551 2-1.55.106-.998-.629-1.933-1.623-2.065-1.516-.203-9.982-.932-12.629-1.048-.988-.021-1.817.75-1.872 1.704-.072.969.625 1.785 1.589 1.83 0 0 9.797.782 12.534 1.129"/><path fill="url(#1r)" d="m320.68 123.71c-.979-.078-1.845.651-1.955 1.609-.126.97.536 1.813 1.495 1.905 0 0 9.75 1.266 12.467 1.747.986.182 1.923-.456 2.074-1.447.154-.991-.533-1.959-1.52-2.141-1.516-.27-9.931-1.421-12.561-1.673"/><path fill="url(#1s)" d="m324.98 129.21c-.961-.136-1.86.55-2.033 1.512s.447 1.834 1.403 1.974c0 0 9.68 1.745 12.366 2.363.977.229 1.944-.361 2.145-1.343.203-.981-.439-1.982-1.416-2.21-1.507-.342-9.847-1.916-12.465-2.296"/><path fill="url(#1t)" d="m329 134.91c-.951-.186-1.885.455-2.106 1.408-.22.95.359 1.853 1.307 2.039 0 0 9.585 2.222 12.236 2.975.965.276 1.962-.265 2.209-1.233.251-.971-.343-2-1.308-2.277 0-.001-9.739-2.405-12.338-2.912"/><path fill="url(#1u)" d="m332.73 140.81c-.941-.232-1.905.361-2.173 1.301-.267.939.268 1.867 1.206 2.101 0 0 9.467 2.694 12.07 3.58.951.324 1.973-.166 2.268-1.122.297-.956-.244-2.01-1.196-2.339-.001-.001-9.607-2.887-12.18-3.521"/><path fill="url(#1v)" d="m336.16 146.88c-.93-.278-1.922.267-2.235 1.191-.312.924.177 1.877 1.104 2.155 0 0 9.324 3.162 11.884 4.179.935.371 1.979-.067 2.32-1.01.344-.939-.146-2.02-1.08-2.394-.001.001-9.453-3.363-11.993-4.124"/><path fill="url(#1w)" d="m339.28 153.12c-.914-.324-1.933.17-2.292 1.077-.356.906.085 1.883.998 2.207 0 0 9.154 3.625 11.66 4.768.916.417 1.98.031 2.368-.889.391-.921-.045-2.026-.962-2.444.001 0-9.272-3.832-11.772-4.719"/><path fill="url(#1x)" d="m342.09 159.51c-.897-.369-1.939.072-2.343.96-.4.888-.009 1.884.888 2.254 0 0 8.961 4.08 11.407 5.347.896.462 1.978.13 2.411-.77.435-.899.055-2.026-.84-2.488 0-.001-9.07-4.293-11.523-5.303"/><path fill="url(#1y)" d="m344.57 166.03c-.878-.413-1.94-.024-2.387.842-.445.865-.103 1.88.775 2.295 0 0 8.744 4.524 11.126 5.912.869.506 1.968.23 2.445-.646.479-.877.155-2.02-.716-2.527.001-.001-8.846-4.743-11.243-5.876"/><path fill="url(#1z)" d="m346.73 172.66c-.857-.456-1.938-.12-2.428.723-.486.841-.194 1.872.662 2.329 0 0 8.505 4.959 10.813 6.465.845.55 1.956.328 2.477-.524.522-.851.256-2.01-.589-2.56 0 0-8.601-5.18-10.935-6.433"/><path fill="url(#20)" d="m348.55 179.4c-.834-.5-1.931-.219-2.461.598-.528.816-.287 1.86.544 2.36 0 0 8.247 5.379 10.478 6.998.814.592 1.937.425 2.497-.398.565-.825.356-1.995-.458-2.587 0 0-8.332-5.603-10.6-6.971"/><path fill="url(#21)" d="m350.02 186.22c-.808-.54-1.918-.314-2.488.475-.568.789-.38 1.845.425 2.385 0 0 7.968 5.785 10.114 7.514.784.631 1.912.521 2.515-.273.605-.796.455-1.975-.329-2.605 0-.002-8.04-6.02-10.237-7.496"/><path fill="url(#22)" d="m351.16 193.1c-.779-.579-1.898-.41-2.509.351-.606.759-.472 1.822.306 2.402 0 0 7.669 6.176 9.726 8.01.751.669 1.883.615 2.525-.148.645-.765.555-1.949-.197-2.618 0-.001-7.727-6.407-9.851-7.995"/><path fill="url(#23)" d="m351.95 200.03c-.75-.619-1.875-.505-2.522.225-.646.729-.563 1.798.184 2.417 0 0 7.354 6.547 9.314 8.478.717.705 1.85.707 2.53-.024.682-.731.652-1.919-.065-2.624 0-.001-7.398-6.78-9.441-8.472"/><path fill="url(#24)" d="m212.6 89.13c-68.08-.002-123.47 55.39-123.47 123.47s55.39 123.47 123.47 123.47c68.08 0 123.47-55.39 123.47-123.47-.001-68.08-55.39-123.47-123.47-123.47m-100.47 138.09c-4.685 0-8.481-3.796-8.481-8.482 0-4.685 3.797-8.48 8.481-8.48s8.482 3.796 8.482 8.48c0 4.686-3.798 8.482-8.482 8.482m100.47 63.21c-42.99 0-77.84-34.851-77.84-77.84 0-42.99 34.851-77.84 77.84-77.84 42.989 0 77.84 34.851 77.84 77.84 0 42.99-34.851 77.84-77.84 77.84m100.46-63.21c-4.684 0-8.481-3.796-8.481-8.482 0-4.685 3.798-8.48 8.481-8.48 4.686 0 8.483 3.796 8.483 8.48.001 4.686-3.797 8.482-8.483 8.482"/><path fill="url(#25)" d="m155.53 128.17c.408-.266.817-.528 1.229-.788l-2.417-1.185 1.188 1.973"/><path fill="url(#26)" d="m135.03 291.75c2.229 2.182 5.07 2.096 7.397-.278l1.707-1.74c-2.546-2.226-4.981-4.573-7.292-7.04l-1.652 1.686c-2.327 2.372-2.386 5.187-.16 7.371"/><path fill="url(#27)" d="m163.31 306.2l.584-2.929c-1.584-.829-3.146-1.693-4.679-2.604l-2.206 1.918 6.301 3.615"/><path fill="url(#28)" d="m132.13 136.88c-1.014 1.076-1.525 2.398-1.396 3.758.131 1.74 1.712 3.484 3.931 5.609 2.24-2.548 4.601-4.981 7.083-7.293-3.048-2.82-4.37-3.631-5.979-3.665-1.367-.045-2.628.516-3.639 1.591"/><path fill="url(#29)" d="m270.07 130.75c1.252.898 2.482 1.826 3.692 2.78l2.193-6.814-5.885 4.03"/><path fill="url(#2A)" d="m124.18 160.44c.066-.109.14-.213.206-.321l-.711-.356.505.677"/><path fill="url(#2B)" d="m117.46 173.49c.038-.09.083-.178.122-.269l-.653.003.531.266"/><path fill="url(#2C)" d="m116.14 264.17c-.436 1.296-.246 2.607.515 3.923 1.604 2.771 4.474 3.386 7.457 1.66l.888-.515-2.589-4.476.747-.433c-.844-1.45-1.652-2.921-2.427-4.415-3.073 1.847-4.133 2.844-4.591 4.256"/><path fill="url(#2D)" d="m212.59 87.34c-69.18 0-125.26 56.08-125.26 125.26s56.08 125.26 125.26 125.26c69.18 0 125.26-56.08 125.26-125.26s-56.08-125.26-125.26-125.26m94 169.39l-5.723 10.01 6.162 3.522 6.72-11.755 4.419 2.525-9.551 16.706-13.479-7.705c-1.616 2.391-3.347 4.698-5.153 6.938l2.251 2.207-8.07 8.233 5.068 4.969 9.479-9.669 3.635 3.561-13.472 13.743-10.808-10.594c-3.446 3.04-7.092 5.857-10.929 8.415l7.499 12.445-4.886 2.942-7.453-12.371c-3.837 2.256-7.822 4.286-11.96 6.03l3.936 14.228-4.905 1.355-12.388-11.04c-.828.22-1.665.414-2.502.614l3.736 13.509-5.496 1.521-3.838-13.869c-2.697.482-5.424.874-8.189 1.138l4.9 14.14-5.95-.098-1.637-5.199-10.382-.17-1.85 5.142-5.95-.098 5.136-13.426c-3.988-.231-7.909-.708-11.761-1.386-.493.156-1.07.272-1.901.376l3.05 13.856-6.382-1.706-2.503-12.732-3.964-1.061-3.01 11.261-5.511-1.474 3.465-12.96c-2.634-.951-5.207-2.023-7.734-3.182l-2.379 13.802-5.162-2.96 1.078-5.344-9.01-5.167-4.104 3.607-5.163-2.96 10.534-8.894c-2.055-1.376-4.04-2.839-5.987-4.356l-2.19 2.233c-4.164 4.248-10.403 4.166-14.856-.2-4.453-4.365-4.66-10.602-.496-14.851l2.069-2.11c-1.356-1.619-2.663-3.28-3.917-4.982l-.776.449c-3.836 2.22-6.268 2.772-9.101 2.136-2.911-.687-5.381-2.577-6.983-5.347-1.562-2.7-1.98-5.637-1.196-8.461.515-1.814 1.654-3.612 2.937-4.592.776-.604 2.168-1.593 4.236-2.853-4.149-9.25-6.956-19.227-8.169-29.694-2.683-.872-4.636-3.363-4.636-6.339 0-2.715 1.622-5.04 3.945-6.088.071-11.873 2.175-23.261 5.988-33.836l-11.89-5.956 2.52-5.03 13.997.202c.455-.915.913-1.827 1.396-2.726l-8.575-11.09 2.519-5.03 12.206 6.115c1.109-1.593 2.267-3.148 3.464-4.674l-.034-.031c-4.241-3.994-5.523-6.05-5.649-9.264-.118-2.929.933-5.661 3.098-7.962 2.138-2.27 4.801-3.482 7.73-3.542 2.931-.059 5.554 1.226 8.989 4.46l.899.846c1.553-1.292 3.151-2.532 4.782-3.732l-7.188-11.947 4.36-2.622 14.54 7.114c.813-.443 1.65-.85 2.479-1.271l-7.105-11.809 4.888-2.941 7.397 12.295c2.116-.928 4.266-1.792 6.455-2.578l-3.834-13.728 18.531-5.177 1.368 4.899-13.04 3.644 1.844 6.598 11.1-3.101.691 2.475c4.311-.755 8.711-1.249 13.189-1.44l-7.633-14.344 6.195-.111 5.669 11.68 5.164-11.873 6.196-.11-7.186 14.748c8.456.327 16.641 1.691 24.442 3.964l5.588-14.383 10.936 4.248c5.124 1.989 7.284 6.173 5.502 10.762-1.01 2.601-2.863 4.083-5.607 4.469.739.864 1.062 1.341 1.366 1.977 2.813 1.44 5.548 3.01 8.201 4.694l13.816-9.181 3.598 2.655-4.712 16.07c1.872 1.65 3.687 3.366 5.432 5.149.323-.27.646-.54.981-.818l.918-.758c4.49-3.715 6.683-4.732 9.893-4.459 2.92.247 5.502 1.627 7.514 4.061 1.021 1.232 1.748 2.496 2.148 3.817.446 1.441.564 2.355.414 4.557l-5.314-.502c.181-2.227-.094-3.331-1.166-4.627-.969-1.17-2.133-1.805-3.499-1.846-2.147-.087-4.488 1.85-6.639 3.628l-1.2.994c-.064.053-.114.097-.176.149 3.985 4.553 7.58 9.455 10.711 14.673l14.579-6.87 2.432 5.16-11.506 5.423 15.897 3.895 2.957 6.274-14.635-3.811-2.723 4c4.627 11.426 7.234 23.877 7.382 36.928.208-.02.409-.063.622-.063 3.696 0 6.692 2.995 6.692 6.691 0 3.698-2.996 6.694-6.692 6.694-.455 0-.897-.047-1.327-.135-1.237 10.46-4.061 20.429-8.228 29.666l3.083 1.765"/><path fill="url(#2E)" d="m253.61 110.23l-5.2-2.02-2.437 6.272 5.201 2.02c2.18.847 3.979.182 4.736-1.77.758-1.95-.119-3.655-2.3-4.502"/><path fill="url(#2F)" d="m216.56 318.36l-1.159-3.652c-1.489.064-2.982.113-4.486.113-.122 0-.24-.009-.361-.009l-1.255 3.429 7.261.119"/><path fill="url(#2G)" d="m244.99 308.94c-.562.201-1.135.386-1.702.577l2.469 2.194-.767-2.771"/><path fill="url(#2H)" d="m165.7 237.56h-8.534v-41.44l-8.37 8.289v-10.01l8.37-7.713 8.534-.083v50.963"/><path fill="url(#2I)" d="m198.03 226.01c0 3.388-1.218 6.283-3.651 8.687-2.437 2.403-5.321 3.604-8.658 3.604h-2.134c-3.394 0-6.292-1.2-8.699-3.604-2.409-2.403-3.611-5.299-3.611-8.687v-28.02c0-3.386 1.202-6.281 3.611-8.685 2.407-2.403 5.306-3.605 8.699-3.605h2.134c3.337 0 6.222 1.202 8.658 3.605 2.434 2.403 3.651 5.299 3.651 8.685v28.02m-8.206-2.205v-23.859c0-2.179-.22-3.73-.657-4.658-.657-1.469-1.942-2.205-3.858-2.205-3.884 0-5.825 2.289-5.825 6.863v23.859c0 4.576 1.776 6.863 5.335 6.863 3.335 0 5-2.287 5-6.863"/><path fill="url(#2J)" d="m230.04 226.01c0 3.388-1.218 6.283-3.651 8.687-2.435 2.403-5.322 3.604-8.658 3.604h-2.133c-3.394 0-6.293-1.2-8.7-3.604s-3.609-5.299-3.609-8.687v-28.02c0-3.386 1.202-6.281 3.609-8.685s5.307-3.605 8.7-3.605h2.133c3.336 0 6.224 1.202 8.658 3.605 2.434 2.403 3.651 5.299 3.651 8.685v28.02m-8.206-2.205v-23.859c0-2.179-.22-3.73-.656-4.658-.658-1.469-1.943-2.205-3.856-2.205-3.887 0-5.827 2.289-5.827 6.863v23.859c0 4.576 1.776 6.863 5.334 6.863 3.335 0 5-2.287 5-6.863"/><path fill="url(#2K)" d="m253.01 202.41c0 2.801-.915 4.926-2.747 6.38-1.835 1.455-4.175 2.181-7.02 2.181-2.298 0-4.28-.836-5.949-2.51-1.67-1.674-2.504-3.69-2.504-6.05v-9.878c0-2.798.957-4.967 2.873-6.503 1.806-1.372 4.131-2.058 6.977-2.058 2.298 0 4.266.837 5.908 2.511 1.642 1.675 2.461 3.691 2.461 6.05v9.878m20.484-18.12l-28.21 53.27h-6.877l28.474-53.589 6.616.319m-26.556 16.647v-7.179c0-2.804-1.056-4.207-3.161-4.207-1.94 0-2.912 1.403-2.912 4.207v7.179c0 2.806 1.053 4.208 3.161 4.208 1.941 0 2.912-1.403 2.912-4.208m31.431 28.09c0 2.79-.933 4.91-2.792 6.359-1.859 1.45-4.212 2.175-7.06 2.175-2.298 0-4.266-.847-5.908-2.544-1.64-1.695-2.461-3.693-2.461-5.99v-9.931c0-2.734.957-4.868 2.873-6.401 1.748-1.421 4.047-2.133 6.893-2.133 2.298 0 4.28.849 5.95 2.544 1.667 1.696 2.503 3.692 2.503 5.99v9.931m-6.074-1.477v-7.14c0-2.79-1.053-4.186-3.161-4.186-1.94 0-2.912 1.396-2.912 4.186v7.14c0 2.79 1.053 4.185 3.161 4.185 1.943-.001 2.912-1.395 2.912-4.185"/><g fill="#fff"><path d="m212.59 146.56l3.08 8.09 8.64.43-6.74 5.42 2.26 8.35-7.24-4.73-7.24 4.73 2.26-8.35-6.73-5.42 8.64-.43z"/><path d="m180.69 157.34l5.37 4.37 6.15-3.16-2.49 6.46 4.9 4.88-6.91-.38-3.12 6.17-1.77-6.69-6.84-1.06 5.81-3.76z"/><path d="m180.69 267.86l1.1-6.83-5.81-3.76 6.84-1.06 1.77-6.69 3.13 6.17 6.91-.38-4.91 4.88 2.5 6.45-6.16-3.15z"/><path d="m212.6 278.63l-3.08-8.08-8.64-.43 6.74-5.42-2.27-8.35 7.25 4.72 7.24-4.72-2.26 8.35 6.73 5.42-8.63.43z"/><path d="m244.5 267.86l-5.37-4.37-6.15 3.15 2.49-6.45-4.9-4.88 6.91.38 3.12-6.17 1.78 6.69 6.83 1.06-5.81 3.75z"/><path d="m244.5 157.34l-1.1 6.83 5.81 3.75-6.84 1.07-1.77 6.69-3.13-6.17-6.9.37 4.9-4.88-2.49-6.45 6.15 3.16z"/></g><path fill="url(#2L)" d="m121.4 165.32c-.48.896-.938 1.807-1.392 2.72l3.535.05-2.143-2.77"/><path fill="url(#2M)" d="m189.91 301.31l-5.193-1.389-1.992 7.453 5.193 1.389c2.38.636 4.406-.437 5-2.657.593-2.219-.63-4.161-3.01-4.796"/><path fill="url(#2N)" d="m165.51 295.2l-6.283 5.462c1.531.909 3.092 1.774 4.675 2.604l1.608-8.07"/><path fill="url(#2O)" d="m266.68 133.08l5.845 4.311 1.242-3.859c-1.208-.953-2.438-1.88-3.69-2.779l-3.397 2.327"/><path fill="url(#2P)" d="m134.66 146.25c.257.246.516.492.787.747 2.599 2.448 5.03 4.958 7.231 4.892 1.392-.042 2.654-.545 3.666-1.62 1.013-1.076 1.496-2.367 1.368-3.729-.171-1.794-1.047-2.958-5.38-7.04-.212-.2-.393-.364-.59-.547-2.48 2.311-4.841 4.747-7.082 7.293"/><path fill="url(#2Q)" d="m234.48 312.04c.836-.198 1.674-.395 2.503-.614l-3.549-3.161 1.046 3.775"/><path fill="url(#2R)" d="m165.02 122.7c-.827.42-1.663.827-2.479 1.27l4.595 2.248-2.116-3.518"/><path fill="url(#2S)" d="m306.37 218.74c0-3.484 2.673-6.312 6.073-6.629-.145-13.05-2.754-25.505-7.383-36.931l-8.778 12.898-2.836-6.01 8.828-12.461-5.693-1.492-7.943 3.744-2.431-5.161 11.854-5.585c-3.13-5.219-6.726-10.121-10.712-14.676-3.423 2.846-4.453 4.082-4.697 5.749-.215 1.349.165 2.579 1.158 3.781 1.101 1.328 2.106 1.772 4.328 2.01l-.501 5.314c-2.189-.265-3.067-.551-4.398-1.26-1.164-.635-2.328-1.589-3.322-2.791-2.01-2.434-2.912-5.259-2.608-8.174.377-3.706 2.883-6.082 6.167-8.826-1.746-1.784-3.561-3.5-5.435-5.151l-4.04 13.773-4.789-3.531 1.682-5.184-8.354-6.159-4.488 3.112-4.786-3.53 12.08-8.03c-2.655-1.688-5.391-3.255-8.207-4.696.046.092.092.18.136.282.695 1.723.6 3.444-.143 5.357-1.857 4.779-6.244 6.553-11.368 4.562l-11.395-4.426 4.988-12.847c-7.802-2.271-15.986-3.636-24.442-3.962l-1.287 2.643.214 11.982-5.663.101-.215-11.981-1.455-2.733c-4.479.192-8.878.687-13.189 1.441l.677 2.423-11.1 3.102 1.908 6.836 13.04-3.643 1.368 4.9-18.531 5.177-4.02-14.403c-2.19.784-4.339 1.651-6.456 2.578l7.663 12.735-4.36 2.623-16.74-8.212c-.412.26-.821.522-1.23.789l8.06 13.389-4.888 2.938-7.869-13.08c-1.632 1.199-3.229 2.439-4.783 3.732l.593.557c3.048 2.869 6.267 5.616 6.489 10.11.148 2.956-.905 5.631-3.07 7.932s-4.828 3.513-7.759 3.573c-4.41.075-7.796-3.395-10.155-5.616l-1.13-1.062c-1.195 1.524-2.353 3.081-3.462 4.674l13.905 6.966-2.555 5.1-14.507-7.27c-.067.11-.141.215-.208.324l6.896 9.269-1.728 3.448-11.761.06c-.04.091-.084.18-.123.272l14.684 7.357-2.555 5.099-14.221-7.125c-3.812 10.572-5.915 21.957-5.986 33.827.838-.378 1.76-.599 2.739-.599 3.696 0 6.692 2.995 6.692 6.691 0 3.698-2.996 6.694-6.692 6.694-.72 0-1.399-.144-2.05-.354 1.214 10.467 4.02 20.441 8.168 29.689.461-.28.941-.569 1.472-.875l1.029-.597c5.04-2.919 7.377-3.558 10.497-2.755 2.932.723 5.136 2.482 6.8 5.359.905 1.562 1.473 3.036 1.655 4.497.222 1.53.099 2.55-.488 4.976l-5.272-1.407c.444-1.773.553-2.406.436-3.428-.095-.656-.364-1.449-.775-2.16-.782-1.351-1.881-2.184-3.221-2.451-.877-.205-1.864-.107-2.615.232-1.184.496-2.915 1.355-5.188 2.671l-.711.411c-.412.238-.778.456-1.135.67.774 1.493 1.583 2.966 2.428 4.414l3.367-1.948 5.447 9.414-2.842 1.645c1.254 1.701 2.561 3.362 3.916 4.981l11.369-11.6 4.073 3.993-11.644 11.877c2.312 2.466 4.746 4.813 7.291 7.04l11.59-11.821 4.04 3.964-11.252 11.478c1.946 1.518 3.934 2.979 5.988 4.355l13.224-11.164 3.88 2.227-2.903 16.854c2.526 1.157 5.1 2.23 7.733 3.181l4.079-15.265 11.06 2.956c5.392 1.44 8.205 6.02 6.849 11.09-.615 2.299-1.916 3.991-3.905 5.073-.462.25-.856.437-1.327.587 3.852.678 7.771 1.154 11.759 1.385l5.973-15.615 4.472.074 5.288 15.252c2.766-.264 5.492-.655 8.19-1.138l-3.955-14.291 4.904-1.357 13.459 11.966c.567-.191 1.137-.375 1.7-.576l-4.01-14.475 5.499-1.521 3.854 13.935c4.139-1.743 8.125-3.772 11.962-6.03l-4.996-8.293-6.537 3.938-2.624-4.356 17.954-10.819 2.626 4.357-6.537 3.938 4.953 8.219c3.838-2.556 7.484-5.374 10.93-8.415l-10.06-9.859 13.471-13.742 3.635 3.562-9.479 9.669 4.892 4.797 8.07-8.233 1.386 1.359c1.808-2.242 3.539-4.549 5.154-6.94l-11.886-6.795 9.548-16.706 4.419 2.524-6.72 11.755 5.947 3.4 5.721-10.01 1.342.767c4.169-9.238 6.993-19.21 8.229-29.667-3.065-.615-5.372-3.317-5.372-6.561m-93.77 69.907c-41.938 0-76.05-34.11-76.05-76.05 0-41.937 34.11-76.05 76.05-76.05 41.935 0 76.05 34.12 76.05 76.05-.001 41.934-34.12 76.05-76.05 76.05"/><path fill="url(#2T)" d="m215.4 314.7l-2.236-7.03-2.611 7.138c.123.001.244.01.369.01 1.501-.001 2.992-.049 4.478-.114"/><path fill="url(#2U)" d="m247.06 128.1c2.18.848 4.062.081 4.863-1.983.804-2.065-.084-3.862-2.264-4.709l-5.546-2.154-2.6 6.693 5.547 2.153"/><path fill="url(#2V)" d="m212.6 89.13c-68.08-.002-123.47 55.39-123.47 123.47s55.39 123.47 123.47 123.47c68.08 0 123.47-55.39 123.47-123.47-.001-68.08-55.39-123.47-123.47-123.47m102.47 70.27l-11.506 5.423 15.897 3.895 2.957 6.274-14.635-3.811-11.499 16.896-2.836-6.01 8.828-12.461-5.693-1.492-7.943 3.744-2.431-5.161 26.429-12.454 2.432 5.16m-24.629 53.2c0 42.989-34.851 77.84-77.84 77.84-42.99 0-77.84-34.851-77.84-77.84 0-42.99 34.851-77.84 77.84-77.84 42.989 0 77.84 34.85 77.84 77.84m-5.067-71.931c4.49-3.715 6.683-4.732 9.893-4.459 2.92.247 5.502 1.627 7.514 4.061 1.021 1.232 1.748 2.496 2.148 3.817.446 1.441.564 2.355.414 4.557l-5.314-.502c.181-2.227-.094-3.331-1.166-4.627-.969-1.17-2.133-1.805-3.499-1.846-2.147-.087-4.488 1.85-6.639 3.628l-1.2.994c-3.573 2.957-4.621 4.198-4.87 5.895-.215 1.349.165 2.579 1.158 3.781 1.101 1.328 2.106 1.772 4.328 2.01l-.501 5.314c-2.189-.265-3.067-.551-4.398-1.26-1.164-.635-2.328-1.589-3.322-2.791-2.01-2.434-2.912-5.259-2.608-8.174.414-4.069 3.386-6.529 7.146-9.643l.916-.757m-2.619-19.645l-8.751 29.841-4.789-3.531 1.682-5.184-8.354-6.159-4.488 3.112-4.786-3.53 25.89-17.204 3.596 2.655m-37.812-19.624l10.936 4.248c5.124 1.989 7.284 6.173 5.502 10.762-1.01 2.601-2.863 4.083-5.607 4.469.848.988 1.148 1.458 1.499 2.255.695 1.723.6 3.444-.143 5.357-1.857 4.779-6.244 6.553-11.368 4.562l-11.395-4.426 10.576-27.23m-39.874-4.03l5.669 11.68 5.164-11.873 6.196-.11-8.473 17.391.214 11.982-5.663.101-.215-11.981-9.09-17.08 6.196-.113m-13.719 1.381l1.368 4.899-13.04 3.644 1.844 6.598 11.1-3.101 1.368 4.898-11.1 3.102 1.908 6.836 13.04-3.643 1.368 4.9-18.531 5.177-7.858-28.13 18.531-5.176m-43.35 18.09l19.14 9.364-9.223-15.329 4.888-2.941 15.06 25.03-4.36 2.623-19.16-9.399 9.245 15.365-4.888 2.938-15.06-25.03 4.36-2.622m-19.573 16.538c2.138-2.27 4.801-3.482 7.73-3.542 2.931-.059 5.554 1.226 8.989 4.46l1.494 1.406c3.048 2.869 6.267 5.616 6.489 10.11.148 2.956-.905 5.631-3.07 7.932s-4.828 3.513-7.759 3.573c-4.41.075-7.796-3.395-10.155-5.616l-1.167-1.097c-4.241-3.994-5.523-6.05-5.649-9.264-.118-2.928.933-5.661 3.098-7.961m-22.421 34.449l17.54.252-10.722-13.86 2.519-5.03 26.12 13.09-2.555 5.1-15.224-7.628 7.404 9.951-1.728 3.448-12.422.062 15.222 7.627-2.555 5.099-26.12-13.09 2.521-5.03m-.563 50.905c0-3.696 2.996-6.691 6.692-6.691s6.692 2.995 6.692 6.691c0 3.698-2.996 6.694-6.692 6.694s-6.692-2.996-6.692-6.694m13.811 57.28c-2.911-.687-5.381-2.577-6.983-5.347-1.562-2.7-1.98-5.637-1.196-8.461.515-1.814 1.654-3.612 2.937-4.592.95-.738 2.801-2.046 5.714-3.731l1.029-.597c5.04-2.919 7.377-3.558 10.497-2.755 2.932.723 5.136 2.482 6.8 5.359.905 1.562 1.473 3.036 1.655 4.497.222 1.53.099 2.55-.488 4.976l-5.272-1.407c.444-1.773.553-2.406.436-3.428-.095-.656-.364-1.449-.775-2.16-.782-1.351-1.881-2.184-3.221-2.451-.877-.205-1.864-.107-2.615.232-1.184.496-2.915 1.355-5.188 2.671l-.711.411c-3.978 2.302-5.221 3.352-5.73 4.928-.436 1.296-.246 2.607.515 3.923 1.604 2.771 4.474 3.386 7.457 1.66l.888-.515-2.589-4.476 4.12-2.385 5.447 9.414-3.623 2.097c-3.839 2.221-6.271 2.774-9.104 2.137m12.221 19.359c-4.453-4.365-4.66-10.602-.496-14.851l13.442-13.714 4.073 3.993-13.299 13.566c-2.327 2.373-2.387 5.188-.16 7.372 2.229 2.182 5.07 2.096 7.397-.278l13.299-13.565 4.04 3.964-13.444 13.713c-4.164 4.248-10.403 4.166-14.856-.2m34.857 24.04l-5.162-2.96 1.078-5.344-9.01-5.167-4.104 3.607-5.163-2.96 23.761-20.06 3.88 2.227-5.283 30.658m32.1-11.841c-.615 2.299-1.916 3.991-3.905 5.073-.943.512-1.604.761-3.23.963l3.05 13.856-6.382-1.706-2.503-12.732-3.964-1.061-3.01 11.261-5.511-1.474 7.544-28.23 11.06 2.956c5.392 1.442 8.205 6.02 6.849 11.09m21.21 20.797l-1.637-5.199-10.382-.17-1.85 5.142-5.95-.098 11.11-29.04 4.472.074 10.188 29.391-5.949-.098m29.726-5.917l-15.935-14.197 4.781 17.283-5.496 1.521-7.792-28.16 4.904-1.357 15.925 14.159-4.771-17.244 5.499-1.521 7.79 28.16-4.905 1.354m20.383-9.242l-12.447-20.661-6.537 3.938-2.624-4.356 17.954-10.819 2.626 4.357-6.537 3.938 12.451 20.662-4.886 2.941m19.12-13.209l-20.863-20.451 13.471-13.742 3.635 3.562-9.479 9.669 4.892 4.797 8.07-8.233 3.635 3.562-8.07 8.233 5.068 4.969 9.479-9.669 3.635 3.561-13.473 13.742m19.742-22.278l-25.361-14.498 9.548-16.706 4.419 2.524-6.72 11.755 5.947 3.4 5.721-10.01 4.419 2.525-5.723 10.01 6.162 3.522 6.72-11.755 4.419 2.525-9.551 16.708m4.448-52.3c-3.696 0-6.692-2.996-6.692-6.694 0-3.696 2.996-6.691 6.692-6.691s6.692 2.995 6.692 6.691c.001 3.697-2.995 6.694-6.692 6.694"/><path fill="url(#2W)" d="m163.31 306.2l2.2-11-8.5 7.39z"/><path fill="url(#2X)" d="m209.3 318.24l7.26.12-3.39-10.69z"/><path fill="url(#2Y)" d="m135.45 146.99c2.599 2.448 5.03 4.958 7.231 4.892 1.392-.042 2.654-.545 3.666-1.62 1.013-1.076 1.496-2.367 1.368-3.729-.171-1.794-1.047-2.958-5.38-7.04-3.495-3.291-4.858-4.179-6.572-4.215-1.365-.045-2.627.516-3.638 1.591-1.014 1.076-1.525 2.398-1.396 3.758.147 1.941 2.092 3.886 4.721 6.359"/><path fill="url(#2Z)" d="m275.96 126.72l-9.28 6.36 5.84 4.31z"/><path fill="url(#2a)" d="m189.91 301.31l-5.193-1.389-1.992 7.453 5.193 1.389c2.38.636 4.406-.437 5-2.657.593-2.219-.63-4.161-3.01-4.796"/><path fill="url(#2b)" d="m255.91 114.73c.757-1.95-.12-3.655-2.301-4.503l-5.2-2.02-2.437 6.272 5.201 2.02c2.18.847 3.98.182 4.737-1.769"/><path fill="url(#2c)" d="m251.93 126.12c.804-2.065-.084-3.862-2.264-4.709l-5.546-2.154-2.6 6.693 5.546 2.153c2.18.848 4.062.082 4.864-1.983"/><path fill="url(#2d)" d="m112.13 225.44c-3.696 0-6.692-2.996-6.692-6.694 0-3.696 2.996-6.691 6.692-6.691s6.692 2.995 6.692 6.691c0 3.697-2.996 6.694-6.692 6.694m0-15.175c-4.685 0-8.481 3.796-8.481 8.48 0 4.687 3.797 8.482 8.481 8.482s8.482-3.796 8.482-8.482c0-4.684-3.798-8.48-8.482-8.48"/><path fill="url(#2e)" d="m313.06 225.44c-3.696 0-6.692-2.996-6.692-6.694 0-3.696 2.996-6.691 6.692-6.691s6.692 2.995 6.692 6.691c.001 3.697-2.995 6.694-6.692 6.694m0-15.175c-4.684 0-8.481 3.796-8.481 8.48 0 4.687 3.798 8.482 8.481 8.482 4.686 0 8.483-3.796 8.483-8.482.001-4.684-3.797-8.48-8.483-8.48"/></svg>